%TF.GenerationSoftware,KiCad,Pcbnew,(6.0.9)*%
%TF.CreationDate,2022-12-31T16:19:11-08:00*%
%TF.ProjectId,LEDArray,4c454441-7272-4617-992e-6b696361645f,rev?*%
%TF.SameCoordinates,Original*%
%TF.FileFunction,Soldermask,Bot*%
%TF.FilePolarity,Negative*%
%FSLAX46Y46*%
G04 Gerber Fmt 4.6, Leading zero omitted, Abs format (unit mm)*
G04 Created by KiCad (PCBNEW (6.0.9)) date 2022-12-31 16:19:11*
%MOMM*%
%LPD*%
G01*
G04 APERTURE LIST*
G04 Aperture macros list*
%AMRoundRect*
0 Rectangle with rounded corners*
0 $1 Rounding radius*
0 $2 $3 $4 $5 $6 $7 $8 $9 X,Y pos of 4 corners*
0 Add a 4 corners polygon primitive as box body*
4,1,4,$2,$3,$4,$5,$6,$7,$8,$9,$2,$3,0*
0 Add four circle primitives for the rounded corners*
1,1,$1+$1,$2,$3*
1,1,$1+$1,$4,$5*
1,1,$1+$1,$6,$7*
1,1,$1+$1,$8,$9*
0 Add four rect primitives between the rounded corners*
20,1,$1+$1,$2,$3,$4,$5,0*
20,1,$1+$1,$4,$5,$6,$7,0*
20,1,$1+$1,$6,$7,$8,$9,0*
20,1,$1+$1,$8,$9,$2,$3,0*%
%AMHorizOval*
0 Thick line with rounded ends*
0 $1 width*
0 $2 $3 position (X,Y) of the first rounded end (center of the circle)*
0 $4 $5 position (X,Y) of the second rounded end (center of the circle)*
0 Add line between two ends*
20,1,$1,$2,$3,$4,$5,0*
0 Add two circle primitives to create the rounded ends*
1,1,$1,$2,$3*
1,1,$1,$4,$5*%
%AMRotRect*
0 Rectangle, with rotation*
0 The origin of the aperture is its center*
0 $1 length*
0 $2 width*
0 $3 Rotation angle, in degrees counterclockwise*
0 Add horizontal line*
21,1,$1,$2,0,0,$3*%
%AMFreePoly0*
4,1,21,1.372500,0.787500,0.862500,0.787500,0.862500,0.532500,1.372500,0.532500,1.372500,0.127500,0.862500,0.127500,0.862500,-0.127500,1.372500,-0.127500,1.372500,-0.532500,0.862500,-0.532500,0.862500,-0.787500,1.372500,-0.787500,1.372500,-1.195000,0.612500,-1.195000,0.612500,-1.117500,-0.862500,-1.117500,-0.862500,1.117500,0.612500,1.117500,0.612500,1.195000,1.372500,1.195000,
1.372500,0.787500,1.372500,0.787500,$1*%
%AMFreePoly1*
4,1,22,0.500000,-0.750000,0.000000,-0.750000,0.000000,-0.745033,-0.079941,-0.743568,-0.215256,-0.701293,-0.333266,-0.622738,-0.424486,-0.514219,-0.481581,-0.384460,-0.499164,-0.250000,-0.500000,-0.250000,-0.500000,0.250000,-0.499164,0.250000,-0.499963,0.256109,-0.478152,0.396186,-0.417904,0.524511,-0.324060,0.630769,-0.204165,0.706417,-0.067858,0.745374,0.000000,0.744959,0.000000,0.750000,
0.500000,0.750000,0.500000,-0.750000,0.500000,-0.750000,$1*%
%AMFreePoly2*
4,1,20,0.000000,0.744959,0.073905,0.744508,0.209726,0.703889,0.328688,0.626782,0.421226,0.519385,0.479903,0.390333,0.500000,0.250000,0.500000,-0.250000,0.499851,-0.262216,0.476331,-0.402017,0.414519,-0.529596,0.319384,-0.634700,0.198574,-0.708877,0.061801,-0.746166,0.000000,-0.745033,0.000000,-0.750000,-0.500000,-0.750000,-0.500000,0.750000,0.000000,0.750000,0.000000,0.744959,
0.000000,0.744959,$1*%
G04 Aperture macros list end*
%ADD10R,2.300000X5.600000*%
%ADD11R,1.400000X3.400000*%
%ADD12RotRect,2.300000X5.600000X207.000000*%
%ADD13RotRect,1.400000X3.400000X207.000000*%
%ADD14RotRect,2.300000X5.600000X135.000000*%
%ADD15RotRect,1.400000X3.400000X135.000000*%
%ADD16C,5.500000*%
%ADD17C,0.800000*%
%ADD18R,1.700000X1.700000*%
%ADD19O,1.700000X1.700000*%
%ADD20C,1.750000*%
%ADD21C,2.000000*%
%ADD22RotRect,1.700000X1.700000X135.000000*%
%ADD23HorizOval,1.700000X0.000000X0.000000X0.000000X0.000000X0*%
%ADD24RoundRect,0.225000X-0.250000X0.225000X-0.250000X-0.225000X0.250000X-0.225000X0.250000X0.225000X0*%
%ADD25R,3.500000X3.300000*%
%ADD26C,10.200000*%
%ADD27RoundRect,0.250000X-0.650000X0.325000X-0.650000X-0.325000X0.650000X-0.325000X0.650000X0.325000X0*%
%ADD28RoundRect,0.250001X1.072677X-1.229132X1.590280X0.363885X-1.072677X1.229132X-1.590280X-0.363885X0*%
%ADD29RoundRect,0.100000X0.637500X0.100000X-0.637500X0.100000X-0.637500X-0.100000X0.637500X-0.100000X0*%
%ADD30RoundRect,0.250001X-1.627625X0.110631X-0.867192X-1.381803X1.627625X-0.110631X0.867192X1.381803X0*%
%ADD31R,0.990000X0.405000*%
%ADD32FreePoly0,180.000000*%
%ADD33RoundRect,0.200000X-0.200000X-0.275000X0.200000X-0.275000X0.200000X0.275000X-0.200000X0.275000X0*%
%ADD34RoundRect,0.250000X-0.250000X-0.475000X0.250000X-0.475000X0.250000X0.475000X-0.250000X0.475000X0*%
%ADD35RoundRect,0.237500X0.237500X-0.287500X0.237500X0.287500X-0.237500X0.287500X-0.237500X-0.287500X0*%
%ADD36RotRect,2.500000X2.300000X315.000000*%
%ADD37R,1.400000X0.300000*%
%ADD38FreePoly1,180.000000*%
%ADD39FreePoly2,180.000000*%
%ADD40RoundRect,0.200000X0.200000X0.275000X-0.200000X0.275000X-0.200000X-0.275000X0.200000X-0.275000X0*%
%ADD41RotRect,0.600000X0.450000X225.000000*%
%ADD42RoundRect,0.225000X0.250000X-0.225000X0.250000X0.225000X-0.250000X0.225000X-0.250000X-0.225000X0*%
%ADD43RoundRect,0.250000X1.099704X0.209600X0.815960X0.766479X-1.099704X-0.209600X-0.815960X-0.766479X0*%
%ADD44RoundRect,0.250000X0.475000X-0.250000X0.475000X0.250000X-0.475000X0.250000X-0.475000X-0.250000X0*%
%ADD45R,4.240000X3.810000*%
%ADD46RotRect,2.500000X2.300000X342.000000*%
%ADD47RoundRect,0.250001X-0.397748X1.582150X-1.582150X0.397748X0.397748X-1.582150X1.582150X-0.397748X0*%
%ADD48R,2.300000X2.500000*%
%ADD49R,1.270000X0.610000*%
%ADD50R,1.020000X0.610000*%
%ADD51R,3.810000X3.910000*%
%ADD52RotRect,2.500000X2.300000X297.000000*%
%ADD53RoundRect,0.250001X-1.229132X-1.072677X0.363885X-1.590280X1.229132X1.072677X-0.363885X1.590280X0*%
%ADD54R,4.600000X1.100000*%
%ADD55R,9.400000X10.800000*%
%ADD56RoundRect,0.250001X-1.582150X-0.397748X-0.397748X-1.582150X1.582150X0.397748X0.397748X1.582150X0*%
%ADD57RoundRect,0.218750X0.218750X0.256250X-0.218750X0.256250X-0.218750X-0.256250X0.218750X-0.256250X0*%
G04 APERTURE END LIST*
D10*
%TO.C,J10*%
X161950000Y-84125000D03*
X169550000Y-84125000D03*
D11*
X167000000Y-77525000D03*
X164500000Y-77525000D03*
%TD*%
D12*
%TO.C,J13*%
X257284218Y-59065680D03*
X268600000Y-53300000D03*
D13*
X263287046Y-48599733D03*
X261059530Y-49734709D03*
X258832014Y-50869685D03*
X256604497Y-52004661D03*
%TD*%
D14*
%TO.C,J9*%
X184256245Y-46381245D03*
X177043755Y-39168755D03*
D15*
X187084672Y-39875862D03*
X185316905Y-38108095D03*
X183478427Y-36411039D03*
%TD*%
D16*
%TO.C,H7*%
X105200000Y-138600000D03*
%TD*%
D17*
%TO.C,D45*%
X106900000Y-34100000D03*
%TD*%
D18*
%TO.C,J4*%
X22100000Y-94425000D03*
D19*
X22100000Y-91885000D03*
X22100000Y-89345000D03*
X22100000Y-86805000D03*
X22100000Y-84265000D03*
X22100000Y-81725000D03*
X22100000Y-79185000D03*
X22100000Y-76645000D03*
X22100000Y-74105000D03*
X22100000Y-71565000D03*
%TD*%
D18*
%TO.C,J8*%
X156550000Y-94200000D03*
D19*
X156550000Y-91660000D03*
X156550000Y-89120000D03*
X156550000Y-86580000D03*
X156550000Y-84040000D03*
X156550000Y-81500000D03*
X156550000Y-78960000D03*
X156550000Y-76420000D03*
X156550000Y-73880000D03*
X156550000Y-71340000D03*
%TD*%
D17*
%TO.C,D5*%
X110223654Y-44127989D03*
%TD*%
%TO.C,D72*%
X27500000Y-82900000D03*
%TD*%
%TO.C,D60*%
X99000000Y-134700000D03*
%TD*%
%TO.C,D49*%
X130900000Y-58000000D03*
%TD*%
%TO.C,D15*%
X120764654Y-110802989D03*
%TD*%
%TO.C,D20*%
X89522654Y-130106989D03*
%TD*%
%TO.C,D16*%
X115938654Y-116644989D03*
%TD*%
%TO.C,D14*%
X124701654Y-104452989D03*
%TD*%
D16*
%TO.C,H11*%
X272450000Y-105675000D03*
%TD*%
%TO.C,H6*%
X137850000Y-105925000D03*
%TD*%
D17*
%TO.C,D61*%
X90700000Y-136800000D03*
%TD*%
%TO.C,D63*%
X73600000Y-136800000D03*
%TD*%
%TO.C,D67*%
X43700000Y-121300000D03*
%TD*%
%TO.C,D21*%
X82029654Y-130487989D03*
%TD*%
D16*
%TO.C,H9*%
X239800000Y-26875000D03*
%TD*%
D17*
%TO.C,D22*%
X74663654Y-130106989D03*
%TD*%
%TO.C,D81*%
X73600000Y-28800000D03*
%TD*%
%TO.C,D38*%
X54000000Y-44100000D03*
%TD*%
%TO.C,D19*%
X96888654Y-128328989D03*
%TD*%
D16*
%TO.C,H13*%
X161000000Y-105675000D03*
%TD*%
D17*
%TO.C,D29*%
X36817654Y-97594989D03*
%TD*%
%TO.C,D25*%
X54251574Y-121338458D03*
%TD*%
%TO.C,D11*%
X129908654Y-82862989D03*
%TD*%
%TO.C,D40*%
X67400000Y-37400000D03*
%TD*%
%TO.C,D41*%
X74637492Y-35688246D03*
%TD*%
D20*
%TO.C,U13*%
X160820000Y-90195000D03*
X163360000Y-90195000D03*
X165900000Y-90195000D03*
X168440000Y-90195000D03*
X170980000Y-90195000D03*
%TD*%
%TO.C,U12*%
X206727245Y-137811077D03*
X207512148Y-135395394D03*
X208297051Y-132979710D03*
X209081954Y-130564026D03*
X209866857Y-128148343D03*
%TD*%
D17*
%TO.C,D65*%
X57300000Y-131500000D03*
%TD*%
%TO.C,D12*%
X129273654Y-90228989D03*
%TD*%
%TO.C,D10*%
X129019654Y-75242989D03*
%TD*%
%TO.C,D4*%
X103873654Y-40190989D03*
%TD*%
%TO.C,D32*%
X34912654Y-75369989D03*
%TD*%
%TO.C,D3*%
X96888654Y-37396989D03*
%TD*%
%TO.C,D17*%
X110229185Y-121182069D03*
%TD*%
%TO.C,D13*%
X127495654Y-97594989D03*
%TD*%
D16*
%TO.C,H5*%
X26375000Y-105950000D03*
%TD*%
D17*
%TO.C,D70*%
X30200000Y-99700000D03*
%TD*%
%TO.C,D75*%
X33200000Y-57900000D03*
%TD*%
%TO.C,D42*%
X81975000Y-28125000D03*
%TD*%
D16*
%TO.C,H8*%
X137850000Y-59775000D03*
%TD*%
%TO.C,H1*%
X59025000Y-27125000D03*
%TD*%
D17*
%TO.C,D62*%
X82000000Y-137500000D03*
%TD*%
%TO.C,D73*%
X28200000Y-74300000D03*
%TD*%
%TO.C,D50*%
X134068498Y-65883949D03*
%TD*%
%TO.C,D79*%
X57400000Y-34000000D03*
%TD*%
%TO.C,D77*%
X43500000Y-44200000D03*
%TD*%
%TO.C,D69*%
X33500000Y-107700000D03*
%TD*%
%TO.C,D24*%
X60439654Y-125280989D03*
%TD*%
%TO.C,D36*%
X43500000Y-54800000D03*
%TD*%
D18*
%TO.C,J5*%
X205225000Y-22275000D03*
D19*
X207765000Y-22275000D03*
X210305000Y-22275000D03*
X212845000Y-22275000D03*
X215385000Y-22275000D03*
X217925000Y-22275000D03*
X220465000Y-22275000D03*
X223005000Y-22275000D03*
X225545000Y-22275000D03*
X228085000Y-22275000D03*
%TD*%
D17*
%TO.C,D80*%
X65400000Y-30800000D03*
%TD*%
D16*
%TO.C,H15*%
X193650000Y-138325000D03*
%TD*%
D17*
%TO.C,D37*%
X48400000Y-49000000D03*
%TD*%
D18*
%TO.C,J2*%
X142500000Y-71575000D03*
D19*
X142500000Y-74115000D03*
X142500000Y-76655000D03*
X142500000Y-79195000D03*
X142500000Y-81735000D03*
X142500000Y-84275000D03*
X142500000Y-86815000D03*
X142500000Y-89355000D03*
X142500000Y-91895000D03*
X142500000Y-94435000D03*
%TD*%
D20*
%TO.C,U15*%
X184082898Y-130042102D03*
X185878949Y-128246051D03*
X187675000Y-126450000D03*
X189471051Y-124653949D03*
X191267102Y-122857898D03*
%TD*%
D16*
%TO.C,H12*%
X193625000Y-26850000D03*
%TD*%
D17*
%TO.C,D28*%
X39484654Y-104579989D03*
%TD*%
D20*
%TO.C,U11*%
X168457898Y-47582898D03*
X170253949Y-49378949D03*
X172050000Y-51175000D03*
X173846051Y-52971051D03*
X175642102Y-54767102D03*
%TD*%
D18*
%TO.C,J6*%
X276950000Y-71055000D03*
D19*
X276950000Y-73595000D03*
X276950000Y-76135000D03*
X276950000Y-78675000D03*
X276950000Y-81215000D03*
X276950000Y-83755000D03*
X276950000Y-86295000D03*
X276950000Y-88835000D03*
X276950000Y-91375000D03*
X276950000Y-93915000D03*
%TD*%
D17*
%TO.C,D8*%
X124701654Y-61018989D03*
%TD*%
%TO.C,D44*%
X98900000Y-30900000D03*
%TD*%
%TO.C,D64*%
X65200000Y-134700000D03*
%TD*%
%TO.C,D33*%
X36616051Y-68162491D03*
%TD*%
%TO.C,D43*%
X90500000Y-28700000D03*
%TD*%
%TO.C,D1*%
X82004654Y-35008989D03*
%TD*%
%TO.C,D54*%
X134100000Y-99700000D03*
%TD*%
D16*
%TO.C,H14*%
X161000000Y-59500000D03*
%TD*%
D18*
%TO.C,J11*%
X264350000Y-73595000D03*
D19*
X264350000Y-76135000D03*
X264350000Y-78675000D03*
X264350000Y-81215000D03*
X264350000Y-83755000D03*
X264350000Y-86295000D03*
X264350000Y-88835000D03*
X264350000Y-91375000D03*
%TD*%
D17*
%TO.C,D27*%
X43548654Y-110929989D03*
%TD*%
D16*
%TO.C,H2*%
X105200000Y-27100000D03*
%TD*%
D17*
%TO.C,D6*%
X115938654Y-48953989D03*
%TD*%
%TO.C,D78*%
X50006396Y-38657537D03*
%TD*%
%TO.C,D71*%
X28300000Y-91400000D03*
%TD*%
%TO.C,D48*%
X126400000Y-50600000D03*
%TD*%
%TO.C,D55*%
X130800000Y-107600000D03*
%TD*%
%TO.C,D23*%
X67297654Y-128201989D03*
%TD*%
%TO.C,D2*%
X89522654Y-35745989D03*
%TD*%
D16*
%TO.C,H4*%
X26375000Y-59775000D03*
%TD*%
D18*
%TO.C,J3*%
X93425000Y-143200000D03*
D19*
X90885000Y-143200000D03*
X88345000Y-143200000D03*
X85805000Y-143200000D03*
X83265000Y-143200000D03*
X80725000Y-143200000D03*
X78185000Y-143200000D03*
X75645000Y-143200000D03*
X73105000Y-143200000D03*
X70565000Y-143200000D03*
%TD*%
D18*
%TO.C,J1*%
X70675000Y-22300000D03*
D19*
X73215000Y-22300000D03*
X75755000Y-22300000D03*
X78295000Y-22300000D03*
X80835000Y-22300000D03*
X83375000Y-22300000D03*
X85915000Y-22300000D03*
X88455000Y-22300000D03*
X90995000Y-22300000D03*
X93535000Y-22300000D03*
%TD*%
D17*
%TO.C,D68*%
X38000000Y-115000000D03*
%TD*%
%TO.C,D58*%
X114472907Y-126987980D03*
%TD*%
D16*
%TO.C,H10*%
X272450000Y-59500000D03*
%TD*%
D17*
%TO.C,D7*%
X120764654Y-54795989D03*
%TD*%
%TO.C,D59*%
X106900000Y-131300000D03*
%TD*%
%TO.C,D52*%
X136700000Y-82800000D03*
%TD*%
%TO.C,D56*%
X126400000Y-114900000D03*
%TD*%
D21*
%TO.C,U19*%
X265307692Y-44493615D03*
X263511641Y-42697564D03*
X261715590Y-40901513D03*
X259919539Y-39105461D03*
X258123487Y-37309410D03*
X256327436Y-35513359D03*
X254531385Y-33717308D03*
X243755078Y-44493615D03*
X245589187Y-46314186D03*
X247372602Y-48097601D03*
X249150000Y-49875000D03*
X250946052Y-51671051D03*
X252742103Y-53467102D03*
X254538154Y-55263153D03*
%TD*%
D17*
%TO.C,D66*%
X50234920Y-127094469D03*
%TD*%
%TO.C,D76*%
X37900000Y-50800000D03*
%TD*%
D20*
%TO.C,U14*%
X170108095Y-113620742D03*
X172371251Y-112467606D03*
X174634408Y-111314470D03*
X176897565Y-110161334D03*
X179160721Y-109008198D03*
%TD*%
D17*
%TO.C,D30*%
X34912654Y-90355989D03*
%TD*%
D16*
%TO.C,H16*%
X239825000Y-138325000D03*
%TD*%
D17*
%TO.C,D31*%
X34277654Y-82862989D03*
%TD*%
%TO.C,D18*%
X103873654Y-125280989D03*
%TD*%
D18*
%TO.C,J7*%
X228075000Y-142975000D03*
D19*
X225535000Y-142975000D03*
X222995000Y-142975000D03*
X220455000Y-142975000D03*
X217915000Y-142975000D03*
X215375000Y-142975000D03*
X212835000Y-142975000D03*
X210295000Y-142975000D03*
X207755000Y-142975000D03*
X205215000Y-142975000D03*
%TD*%
D17*
%TO.C,D46*%
X114300000Y-38600000D03*
%TD*%
D22*
%TO.C,J12*%
X246082898Y-34242102D03*
D23*
X247878949Y-32446051D03*
X249675000Y-30650000D03*
%TD*%
D17*
%TO.C,D35*%
X39300000Y-61300000D03*
%TD*%
%TO.C,D39*%
X60500000Y-40300000D03*
%TD*%
D16*
%TO.C,H3*%
X59025000Y-138575000D03*
%TD*%
D17*
%TO.C,D47*%
X120700000Y-44200000D03*
%TD*%
%TO.C,D74*%
X30116051Y-66031502D03*
%TD*%
%TO.C,D26*%
X48501654Y-116644989D03*
%TD*%
%TO.C,D53*%
X136000000Y-91300000D03*
%TD*%
%TO.C,D51*%
X135900000Y-74300000D03*
%TD*%
%TO.C,D9*%
X127464152Y-67987938D03*
%TD*%
%TO.C,D57*%
X120800000Y-121400000D03*
%TD*%
D24*
%TO.C,C31*%
X246850000Y-121750000D03*
X246850000Y-123300000D03*
%TD*%
D25*
%TO.C,BT1*%
X236950000Y-32000000D03*
X221150000Y-32000000D03*
D26*
X229050000Y-32000000D03*
%TD*%
D27*
%TO.C,C30*%
X248975000Y-121825000D03*
X248975000Y-124775000D03*
%TD*%
D28*
%TO.C,C24*%
X192815008Y-133306493D03*
X194784992Y-127243507D03*
%TD*%
D29*
%TO.C,U16*%
X172112500Y-55300000D03*
X172112500Y-55950000D03*
X172112500Y-56600000D03*
X172112500Y-57250000D03*
X172112500Y-57900000D03*
X172112500Y-58550000D03*
X172112500Y-59200000D03*
X172112500Y-59850000D03*
X166387500Y-59850000D03*
X166387500Y-59200000D03*
X166387500Y-58550000D03*
X166387500Y-57900000D03*
X166387500Y-57250000D03*
X166387500Y-56600000D03*
X166387500Y-55950000D03*
X166387500Y-55300000D03*
%TD*%
D30*
%TO.C,C21*%
X168252905Y-104409917D03*
X171147095Y-110090083D03*
%TD*%
D31*
%TO.C,Q10*%
X255355000Y-111130000D03*
X255355000Y-111790000D03*
X255355000Y-112450000D03*
X255355000Y-113110000D03*
D32*
X253362500Y-112120000D03*
%TD*%
D33*
%TO.C,R14*%
X165600000Y-62975000D03*
X167250000Y-62975000D03*
%TD*%
D34*
%TO.C,C32*%
X244975000Y-126850000D03*
X246875000Y-126850000D03*
%TD*%
D35*
%TO.C,D85*%
X158450000Y-66650000D03*
X158450000Y-64900000D03*
%TD*%
D36*
%TO.C,D89*%
X183534440Y-117859440D03*
X186575000Y-120900000D03*
%TD*%
D37*
%TO.C,U17*%
X244475000Y-122200000D03*
X244475000Y-122700000D03*
X244475000Y-123200000D03*
X244475000Y-123700000D03*
X244475000Y-124200000D03*
X240075000Y-124200000D03*
X240075000Y-123700000D03*
X240075000Y-123200000D03*
X240075000Y-122700000D03*
X240075000Y-122200000D03*
%TD*%
D31*
%TO.C,Q3*%
X263035000Y-97210000D03*
X263035000Y-97870000D03*
X263035000Y-98530000D03*
X263035000Y-99190000D03*
D32*
X261042500Y-98200000D03*
%TD*%
D31*
%TO.C,Q6*%
X255160000Y-118510000D03*
X255160000Y-119170000D03*
X255160000Y-119830000D03*
X255160000Y-120490000D03*
D32*
X253167500Y-119500000D03*
%TD*%
D31*
%TO.C,Q4*%
X255060000Y-126360000D03*
X255060000Y-127020000D03*
X255060000Y-127680000D03*
X255060000Y-128340000D03*
D32*
X253067500Y-127350000D03*
%TD*%
D38*
%TO.C,JP1*%
X172175000Y-61850000D03*
D39*
X170875000Y-61850000D03*
%TD*%
D31*
%TO.C,Q5*%
X262842500Y-119105000D03*
X262842500Y-119765000D03*
X262842500Y-120425000D03*
X262842500Y-121085000D03*
D32*
X260850000Y-120095000D03*
%TD*%
D40*
%TO.C,R2*%
X264100000Y-108100000D03*
X262450000Y-108100000D03*
%TD*%
D41*
%TO.C,D91*%
X253792462Y-39332538D03*
X252307538Y-40817462D03*
%TD*%
D40*
%TO.C,R4*%
X255129999Y-130030000D03*
X253479999Y-130030000D03*
%TD*%
D31*
%TO.C,Q1*%
X247805000Y-131605000D03*
X247805000Y-132265000D03*
X247805000Y-132925000D03*
X247805000Y-133585000D03*
D32*
X245812500Y-132595000D03*
%TD*%
D42*
%TO.C,C27*%
X164125000Y-54275000D03*
X164125000Y-52725000D03*
%TD*%
D43*
%TO.C,F4*%
X260713961Y-45678097D03*
X259386039Y-43071903D03*
%TD*%
D42*
%TO.C,C14*%
X191350000Y-32150000D03*
X191350000Y-30600000D03*
%TD*%
D44*
%TO.C,C20*%
X160450000Y-66725000D03*
X160450000Y-64825000D03*
%TD*%
D40*
%TO.C,R7*%
X262887499Y-115530000D03*
X261237499Y-115530000D03*
%TD*%
D42*
%TO.C,C26*%
X162400000Y-54975000D03*
X162400000Y-53425000D03*
%TD*%
D45*
%TO.C,F3*%
X169040000Y-72475000D03*
X162660000Y-72475000D03*
%TD*%
D24*
%TO.C,C18*%
X188750000Y-30600000D03*
X188750000Y-32150000D03*
%TD*%
D41*
%TO.C,D90*%
X251992462Y-37632538D03*
X250507538Y-39117462D03*
%TD*%
D40*
%TO.C,R13*%
X163975000Y-64775000D03*
X162325000Y-64775000D03*
%TD*%
%TO.C,R12*%
X176475000Y-59075000D03*
X174825000Y-59075000D03*
%TD*%
D31*
%TO.C,Q7*%
X262817500Y-111860000D03*
X262817500Y-112520000D03*
X262817500Y-113180000D03*
X262817500Y-113840000D03*
D32*
X260825000Y-112850000D03*
%TD*%
D41*
%TO.C,D92*%
X250392462Y-36032538D03*
X248907538Y-37517462D03*
%TD*%
D46*
%TO.C,D86*%
X201285455Y-127671223D03*
X205374999Y-128999997D03*
%TD*%
D40*
%TO.C,R3*%
X263725000Y-100875000D03*
X262075000Y-100875000D03*
%TD*%
D43*
%TO.C,F6*%
X254277922Y-48881194D03*
X252950000Y-46275000D03*
%TD*%
D40*
%TO.C,R6*%
X255229999Y-122180000D03*
X253579999Y-122180000D03*
%TD*%
D47*
%TO.C,C23*%
X173853903Y-117346097D03*
X169346097Y-121853903D03*
%TD*%
D40*
%TO.C,R1*%
X247875000Y-135275000D03*
X246225000Y-135275000D03*
%TD*%
D48*
%TO.C,D87*%
X171200000Y-97875000D03*
X171200000Y-93575000D03*
%TD*%
D49*
%TO.C,Q9*%
X165780000Y-68680000D03*
X165780000Y-67410000D03*
X165780000Y-66140000D03*
X165780000Y-64870000D03*
D50*
X171245000Y-64870000D03*
X171245000Y-67410000D03*
X171245000Y-66140000D03*
X171245000Y-68680000D03*
D51*
X169140000Y-66775000D03*
%TD*%
D52*
%TO.C,D88*%
X173448920Y-101909336D03*
X175401080Y-105740664D03*
%TD*%
D40*
%TO.C,R20*%
X255424999Y-114800000D03*
X253774999Y-114800000D03*
%TD*%
D53*
%TO.C,C25*%
X198368507Y-133115008D03*
X204431493Y-135084992D03*
%TD*%
D54*
%TO.C,U18*%
X217075000Y-137150000D03*
X217075000Y-135450000D03*
D55*
X226225000Y-133750000D03*
D54*
X217075000Y-133750000D03*
X217075000Y-132050000D03*
X217075000Y-130350000D03*
%TD*%
D40*
%TO.C,R5*%
X262912499Y-122775000D03*
X261262499Y-122775000D03*
%TD*%
D56*
%TO.C,C22*%
X177896097Y-120746097D03*
X182403903Y-125253903D03*
%TD*%
D42*
%TO.C,C15*%
X191350000Y-35550000D03*
X191350000Y-34000000D03*
%TD*%
D24*
%TO.C,C19*%
X188750000Y-33900000D03*
X188750000Y-35450000D03*
%TD*%
D57*
%TO.C,D83*%
X176425000Y-62075000D03*
X174850000Y-62075000D03*
%TD*%
D31*
%TO.C,Q2*%
X262885000Y-104510000D03*
X262885000Y-105170000D03*
X262885000Y-105830000D03*
X262885000Y-106490000D03*
D32*
X260892500Y-105500000D03*
%TD*%
D43*
%TO.C,F5*%
X257477922Y-47281194D03*
X256150000Y-44675000D03*
%TD*%
M02*
