M48
; DRILL file {KiCad (6.0.9)} date Sat Dec 31 16:19:23 2022
; FORMAT={-:-/ absolute / inch / decimal}
; #@! TF.CreationDate,2022-12-31T16:19:23-08:00
; #@! TF.GenerationSoftware,Kicad,Pcbnew,(6.0.9)
; #@! TF.FileFunction,MixedPlating,1,6
FMAT,2
INCH
; #@! TA.AperFunction,Plated,PTH,ComponentDrill
T1C0.0079
; #@! TA.AperFunction,Plated,PTH,ViaDrill
T2C0.0157
; #@! TA.AperFunction,Plated,PTH,ComponentDrill
T3C0.0157
; #@! TA.AperFunction,Plated,PTH,ComponentDrill
T4C0.0197
; #@! TA.AperFunction,Plated,PTH,ComponentDrill
T5C0.0394
; #@! TA.AperFunction,Plated,PTH,ComponentDrill
T6C0.0402
; #@! TA.AperFunction,Plated,PTH,ComponentDrill
T7C0.0449
; #@! TA.AperFunction,Plated,PTH,ComponentDrill
T8C0.1260
%
G90
G05
T1
X10.5659Y-3.2067
X10.5659Y-3.2431
X10.5659Y-3.2795
X10.6024Y-3.2067
X10.6024Y-3.2431
X10.6024Y-3.2795
X10.6388Y-3.2067
X10.6388Y-3.2431
X10.6388Y-3.2795
T2
X1.0433Y-2.7579
X1.0778Y-3.4892
X1.2126Y-3.1565
X1.2136Y-4.1112
X1.2766Y-3.7667
X1.3219Y-2.187
X1.4429Y-2.5827
X1.5344Y-4.3494
X1.6348Y-4.7352
X1.6762Y-1.9852
X1.7116Y-1.5413
X2.0463Y-4.7362
X2.0768Y-5.1752
X2.1467Y-1.5522
X2.3573Y-1.2746
X2.501Y-5.1437
X2.7303Y-5.4518
X2.7372Y-1.3189
X2.9567Y-0.9813
X3.1132Y-5.2766
X3.3159Y-1.249
X3.4124Y-5.5207
X3.6634Y-1.1181
X3.7451Y-5.2116
X3.9764Y-1.3809
X4.1368Y-5.2352
X4.2717Y-4.8406
X4.3967Y-1.3081
X4.5325Y-1.7205
X4.7096Y-4.9508
X4.7963Y-4.5384
X4.9173Y-1.7805
X4.938Y-2.1801
X5.0502Y-2.7598
X5.1142Y-3.997
X5.1476Y-4.4104
X5.251Y-3.375
X5.2589Y-2.3917
X5.3829Y-3.0108
X5.4419Y-3.7618
X6.2606Y-3.3087
X6.2825Y-2.9557
X6.2963Y-2.8563
X6.4045Y-3.0522
X6.4498Y-2.6742
X6.4675Y-2.2392
X6.4705Y-3.3809
X6.4921Y-2.3573
X6.4941Y-2.2815
X6.5256Y-2.7569
X6.5256Y-2.9547
X6.6083Y-2.2825
X6.6535Y-2.1348
X6.6693Y-3.1083
X6.6722Y-3.4458
X6.8189Y-2.3957
X6.8284Y-2.3387
X7.2372Y-1.5846
X7.4291Y-1.5866
X7.4803Y-1.2096
X7.4843Y-1.3612
X7.6033Y-1.2244
X7.6043Y-1.3179
X7.6073Y-1.3917
X7.6093Y-1.2746
X7.8041Y-1.1732
X8.061Y-1.3661
X8.1506Y-1.3573
X8.2293Y-5.4951
X8.2963Y-5.3031
X8.3505Y-5.0462
X8.3809Y-1.0797
X8.3986Y-5.2707
X8.4016Y-5.1102
X8.4045Y-5.4862
X8.4144Y-5.1988
X8.5187Y-5.0413
X8.5197Y-1.2874
X8.564Y-1.3278
X8.5778Y-1.2077
X8.5827Y-0.9941
X8.5827Y-1.4163
X8.5945Y-5.5207
X8.6803Y-1.4197
X8.752Y-1.125
X8.8199Y-5.5187
X8.8602Y-5.5187
X8.9085Y-5.5187
X8.9291Y-5.0079
X8.9528Y-5.5187
X9.001Y-5.5187
X9.063Y-5.5659
X9.1388Y-5.1526
X9.2411Y-5.1998
X9.247Y-4.9331
X9.2746Y-1.1762
X9.3253Y-4.8711
X9.3327Y-5.2854
X9.3528Y-4.9099
X9.3552Y-1.4478
X9.373Y-5.0108
X9.376Y-4.9636
X9.3863Y-1.3578
X9.4104Y-4.7864
X9.4212Y-1.313
X9.436Y-1.4075
X9.4547Y-1.253
X9.4833Y-1.6565
X9.4843Y-5.0246
X9.4966Y-1.3952
X9.5438Y-5.0517
X9.5738Y-1.5591
X9.622Y-5.1014
X9.685Y-5.126
X9.6959Y-1.564
X9.7421Y-1.4311
X9.7431Y-1.6053
X9.7785Y-4.6299
X9.7982Y-1.3652
X9.8091Y-5.2589
X9.8602Y-5.061
X9.8701Y-5.0049
X9.8868Y-4.6201
X9.8917Y-1.6644
X9.9043Y-4.4845
X9.9262Y-4.6004
X9.9742Y-4.238
X9.9884Y-4.334
X10.0374Y-4.875
X10.0515Y-1.5882
X10.0728Y-1.5551
X10.0947Y-5.0524
X10.0984Y-4.453
X10.0986Y-4.7433
X10.1014Y-4.5807
X10.1025Y-4.1842
X10.1127Y-1.6471
X10.127Y-4.4843
X10.1467Y-4.7766
X10.1624Y-4.4596
X10.1654Y-1.6427
X10.1654Y-3.875
X10.1743Y-4.0944
X10.1978Y-4.8711
X10.2099Y-4.5932
X10.21Y-4.3116
X10.2106Y-3.7146
X10.2106Y-4.002
X10.2175Y-4.8297
X10.2539Y-3.9646
X10.2598Y-4.6368
X10.2618Y-4.3484
X10.2707Y-4.2608
X10.2795Y-4.0
X10.291Y-2.7875
X10.2982Y-3.7766
X10.3394Y-4.3523
X10.3396Y-3.7018
X10.3642Y-4.6093
X10.4001Y-4.4815
X10.4011Y-4.7667
X10.4028Y-4.1879
X10.4085Y-3.9046
X10.4606Y-2.7106
X10.4626Y-3.7313
X10.4642Y-3.2721
X10.4665Y-3.3228
X10.4685Y-3.3661
X10.4695Y-3.4232
X10.4738Y-4.383
X10.4742Y-3.2341
X10.4873Y-3.6415
X10.4889Y-4.2235
X10.4983Y-3.1821
X10.5013Y-3.6048
X10.5045Y-3.8091
X10.5069Y-4.0686
X10.5118Y-4.6053
X10.5285Y-3.4842
X10.5316Y-3.5599
X10.5325Y-4.2736
X10.5384Y-3.7153
X10.5406Y-3.125
X10.5443Y-2.9616
X10.5512Y-2.8573
X10.5591Y-3.3819
X10.5636Y-3.0689
X10.5698Y-4.0531
X10.5856Y-4.377
X10.6102Y-3.1033
X10.6299Y-3.3948
X10.6467Y-3.4724
X10.6634Y-3.5105
X10.6654Y-4.0344
X10.6703Y-3.1207
X10.6772Y-3.1594
X10.6823Y-3.3143
X10.687Y-3.9055
X10.6919Y-3.8602
X10.6949Y-3.3593
X10.7559Y-3.4074
X10.7831Y-3.6629
X10.7922Y-3.1505
X10.7923Y-3.2077
X10.8012Y-3.9636
X10.8386Y-3.2352
T3
X1.3071Y-2.2795
X1.5472Y-2.4134
X1.7205Y-4.7756
X1.9095Y-4.5923
X3.5245Y-1.4073
X3.563Y-1.1299
X4.0895Y-4.9323
X4.2087Y-5.1693
X5.0795Y-2.9623
X5.3504Y-2.9252
T4
X1.0827Y-3.2638
X1.1102Y-2.9252
X1.1142Y-3.5984
X1.1857Y-2.5997
X1.189Y-3.9252
X1.3189Y-4.2402
X1.3495Y-3.2623
X1.3745Y-2.9673
X1.3745Y-3.5573
X1.4416Y-2.6836
X1.4495Y-3.8423
X1.4921Y-2.0
X1.4961Y-4.5276
X1.5545Y-4.1173
X1.7126Y-1.7402
X1.7126Y-2.1575
X1.7145Y-4.3673
X1.9055Y-1.9291
X1.9688Y-1.522
X1.9778Y-5.0037
X2.126Y-1.7362
X2.1359Y-4.7771
X2.2559Y-5.1772
X2.2598Y-1.3386
X2.3795Y-4.9323
X2.3819Y-1.5866
X2.5669Y-5.3031
X2.5748Y-1.2126
X2.6495Y-5.0473
X2.6535Y-1.4724
X2.8976Y-1.1339
X2.8976Y-5.3858
X2.9385Y-1.405
X2.9395Y-5.1223
X3.2274Y-1.1073
X3.2283Y-5.4134
X3.2285Y-1.3783
X3.2295Y-5.1373
X3.5245Y-5.1223
X3.5709Y-5.3858
X3.8145Y-1.4723
X3.8145Y-5.0523
X3.8937Y-1.2165
X3.8976Y-5.3031
X4.0895Y-1.5823
X4.2087Y-1.3425
X4.3395Y-1.7373
X4.3397Y-4.7709
X4.5Y-1.5197
X4.5068Y-4.9995
X4.5645Y-1.9273
X4.5645Y-4.5923
X4.752Y-1.7402
X4.7545Y-2.1573
X4.7545Y-4.3623
X4.7559Y-4.7795
X4.9095Y-2.4023
X4.9095Y-4.1123
X4.9764Y-1.9921
X4.9764Y-4.5236
X5.0183Y-2.6767
X5.0195Y-3.8423
X5.0895Y-3.5523
X5.1145Y-3.2623
X5.1496Y-4.2362
X5.1535Y-2.2835
X5.2783Y-2.5939
X5.2795Y-3.9252
X5.3543Y-3.5945
X5.3819Y-3.2598
T5
X0.8701Y-2.8175
X0.8701Y-2.9175
X0.8701Y-3.0175
X0.8701Y-3.1175
X0.8701Y-3.2175
X0.8701Y-3.3175
X0.8701Y-3.4175
X0.8701Y-3.5175
X0.8701Y-3.6175
X0.8701Y-3.7175
X2.7781Y-5.6378
X2.7825Y-0.878
X2.8781Y-5.6378
X2.8825Y-0.878
X2.9781Y-5.6378
X2.9825Y-0.878
X3.0781Y-5.6378
X3.0825Y-0.878
X3.1781Y-5.6378
X3.1825Y-0.878
X3.2781Y-5.6378
X3.2825Y-0.878
X3.3781Y-5.6378
X3.3825Y-0.878
X3.4781Y-5.6378
X3.4825Y-0.878
X3.5781Y-5.6378
X3.5825Y-0.878
X3.6781Y-5.6378
X3.6825Y-0.878
X5.6102Y-2.8179
X5.6102Y-2.9179
X5.6102Y-3.0179
X5.6102Y-3.1179
X5.6102Y-3.2179
X5.6102Y-3.3179
X5.6102Y-3.4179
X5.6102Y-3.5179
X5.6102Y-3.6179
X5.6102Y-3.7179
X6.1634Y-2.8087
X6.1634Y-2.9087
X6.1634Y-3.0087
X6.1634Y-3.1087
X6.1634Y-3.2087
X6.1634Y-3.3087
X6.1634Y-3.4087
X6.1634Y-3.5087
X6.1634Y-3.6087
X6.1634Y-3.7087
X8.0793Y-5.6289
X8.0797Y-0.877
X8.1793Y-5.6289
X8.1797Y-0.877
X8.2793Y-5.6289
X8.2797Y-0.877
X8.3793Y-5.6289
X8.3797Y-0.877
X8.4793Y-5.6289
X8.4797Y-0.877
X8.5793Y-5.6289
X8.5797Y-0.877
X8.6793Y-5.6289
X8.6797Y-0.877
X8.7793Y-5.6289
X8.7797Y-0.877
X8.8793Y-5.6289
X8.8797Y-0.877
X8.9793Y-5.6289
X8.9797Y-0.877
X9.6883Y-1.3481
X9.759Y-1.2774
X9.8297Y-1.2067
X10.4075Y-2.8974
X10.4075Y-2.9974
X10.4075Y-3.0974
X10.4075Y-3.1974
X10.4075Y-3.2974
X10.4075Y-3.3974
X10.4075Y-3.4974
X10.4075Y-3.5974
X10.9035Y-2.7974
X10.9035Y-2.8974
X10.9035Y-2.9974
X10.9035Y-3.0974
X10.9035Y-3.1974
X10.9035Y-3.2974
X10.9035Y-3.3974
X10.9035Y-3.4974
X10.9035Y-3.5974
X10.9035Y-3.6974
T6
X6.3315Y-3.551
X6.4315Y-3.551
X6.5315Y-3.551
X6.6315Y-3.551
X6.6322Y-1.8733
X6.6972Y-4.4733
X6.7029Y-1.9441
X6.7315Y-3.551
X6.7736Y-2.0148
X6.7863Y-4.4279
X6.8443Y-2.0855
X6.8754Y-4.3825
X6.915Y-2.1562
X6.9645Y-4.3371
X7.0536Y-4.2917
X7.2474Y-5.1198
X7.3181Y-5.0491
X7.3888Y-4.9783
X7.4595Y-4.9076
X7.5302Y-4.8369
X8.1389Y-5.4256
X8.1698Y-5.3305
X8.2007Y-5.2354
X8.2316Y-5.1403
X8.2625Y-5.0452
T7
X9.5967Y-1.7517
X9.6689Y-1.8234
X9.7391Y-1.8936
X9.8091Y-1.9636
X9.8798Y-2.0343
X9.9505Y-2.105
X10.0209Y-1.3275
X10.0212Y-2.1757
X10.0916Y-1.3982
X10.1623Y-1.4689
X10.2331Y-1.5396
X10.3038Y-1.6103
X10.3745Y-1.681
X10.4452Y-1.7517
T8
X1.0384Y-2.3533
X1.0384Y-4.1713
X2.3238Y-1.0679
X2.3238Y-5.4557
X4.1417Y-1.0669
X4.1417Y-5.4567
X5.4272Y-2.3533
X5.4272Y-4.1703
X6.3386Y-2.3425
X6.3386Y-4.1604
X7.623Y-1.0571
X7.624Y-5.4459
X9.4409Y-1.0581
X9.4419Y-5.4459
X10.7264Y-2.3425
X10.7264Y-4.1604
T0
M30
