%TF.GenerationSoftware,KiCad,Pcbnew,(6.0.9)*%
%TF.CreationDate,2022-12-31T16:19:11-08:00*%
%TF.ProjectId,LEDArray,4c454441-7272-4617-992e-6b696361645f,rev?*%
%TF.SameCoordinates,Original*%
%TF.FileFunction,Paste,Top*%
%TF.FilePolarity,Positive*%
%FSLAX46Y46*%
G04 Gerber Fmt 4.6, Leading zero omitted, Abs format (unit mm)*
G04 Created by KiCad (PCBNEW (6.0.9)) date 2022-12-31 16:19:11*
%MOMM*%
%LPD*%
G01*
G04 APERTURE LIST*
G04 Aperture macros list*
%AMRoundRect*
0 Rectangle with rounded corners*
0 $1 Rounding radius*
0 $2 $3 $4 $5 $6 $7 $8 $9 X,Y pos of 4 corners*
0 Add a 4 corners polygon primitive as box body*
4,1,4,$2,$3,$4,$5,$6,$7,$8,$9,$2,$3,0*
0 Add four circle primitives for the rounded corners*
1,1,$1+$1,$2,$3*
1,1,$1+$1,$4,$5*
1,1,$1+$1,$6,$7*
1,1,$1+$1,$8,$9*
0 Add four rect primitives between the rounded corners*
20,1,$1+$1,$2,$3,$4,$5,0*
20,1,$1+$1,$4,$5,$6,$7,0*
20,1,$1+$1,$6,$7,$8,$9,0*
20,1,$1+$1,$8,$9,$2,$3,0*%
%AMRotRect*
0 Rectangle, with rotation*
0 The origin of the aperture is its center*
0 $1 length*
0 $2 width*
0 $3 Rotation angle, in degrees counterclockwise*
0 Add horizontal line*
21,1,$1,$2,0,0,$3*%
%AMOutline5P*
0 Free polygon, 5 corners , with rotation*
0 The origin of the aperture is its center*
0 number of corners: always 5*
0 $1 to $10 corner X, Y*
0 $11 Rotation angle, in degrees counterclockwise*
0 create outline with 5 corners*
4,1,5,$1,$2,$3,$4,$5,$6,$7,$8,$9,$10,$1,$2,$11*%
%AMOutline6P*
0 Free polygon, 6 corners , with rotation*
0 The origin of the aperture is its center*
0 number of corners: always 6*
0 $1 to $12 corner X, Y*
0 $13 Rotation angle, in degrees counterclockwise*
0 create outline with 6 corners*
4,1,6,$1,$2,$3,$4,$5,$6,$7,$8,$9,$10,$11,$12,$1,$2,$13*%
%AMOutline7P*
0 Free polygon, 7 corners , with rotation*
0 The origin of the aperture is its center*
0 number of corners: always 7*
0 $1 to $14 corner X, Y*
0 $15 Rotation angle, in degrees counterclockwise*
0 create outline with 7 corners*
4,1,7,$1,$2,$3,$4,$5,$6,$7,$8,$9,$10,$11,$12,$13,$14,$1,$2,$15*%
%AMOutline8P*
0 Free polygon, 8 corners , with rotation*
0 The origin of the aperture is its center*
0 number of corners: always 8*
0 $1 to $16 corner X, Y*
0 $17 Rotation angle, in degrees counterclockwise*
0 create outline with 8 corners*
4,1,8,$1,$2,$3,$4,$5,$6,$7,$8,$9,$10,$11,$12,$13,$14,$15,$16,$1,$2,$17*%
%AMFreePoly0*
4,1,21,1.372500,0.787500,0.862500,0.787500,0.862500,0.532500,1.372500,0.532500,1.372500,0.127500,0.862500,0.127500,0.862500,-0.127500,1.372500,-0.127500,1.372500,-0.532500,0.862500,-0.532500,0.862500,-0.787500,1.372500,-0.787500,1.372500,-1.195000,0.612500,-1.195000,0.612500,-1.117500,-0.862500,-1.117500,-0.862500,1.117500,0.612500,1.117500,0.612500,1.195000,1.372500,1.195000,
1.372500,0.787500,1.372500,0.787500,$1*%
G04 Aperture macros list end*
%ADD10RoundRect,0.225000X-0.225000X-0.250000X0.225000X-0.250000X0.225000X0.250000X-0.225000X0.250000X0*%
%ADD11RoundRect,0.225000X0.250000X-0.225000X0.250000X0.225000X-0.250000X0.225000X-0.250000X-0.225000X0*%
%ADD12RoundRect,0.250000X-0.275000X-2.125000X0.275000X-2.125000X0.275000X2.125000X-0.275000X2.125000X0*%
%ADD13Outline5P,-0.735000X0.735000X0.220500X0.735000X0.735000X0.220500X0.735000X-0.735000X-0.735000X-0.735000X153.000000*%
%ADD14Outline5P,-0.735000X0.735000X0.220500X0.735000X0.735000X0.220500X0.735000X-0.735000X-0.735000X-0.735000X63.000000*%
%ADD15Outline5P,-0.735000X0.735000X0.735000X0.735000X0.735000X-0.220500X0.220500X-0.735000X-0.735000X-0.735000X333.000000*%
%ADD16Outline5P,-0.735000X0.735000X0.220500X0.735000X0.735000X0.220500X0.735000X-0.735000X-0.735000X-0.735000X333.000000*%
%ADD17C,3.450000*%
%ADD18R,0.600000X0.450000*%
%ADD19RoundRect,0.150000X-0.875000X-0.150000X0.875000X-0.150000X0.875000X0.150000X-0.875000X0.150000X0*%
%ADD20RoundRect,0.150000X-0.512500X-0.150000X0.512500X-0.150000X0.512500X0.150000X-0.512500X0.150000X0*%
%ADD21Outline5P,-0.735000X0.735000X0.220500X0.735000X0.735000X0.220500X0.735000X-0.735000X-0.735000X-0.735000X54.000000*%
%ADD22Outline5P,-0.735000X0.735000X0.220500X0.735000X0.735000X0.220500X0.735000X-0.735000X-0.735000X-0.735000X144.000000*%
%ADD23Outline5P,-0.735000X0.735000X0.735000X0.735000X0.735000X-0.220500X0.220500X-0.735000X-0.735000X-0.735000X324.000000*%
%ADD24Outline5P,-0.735000X0.735000X0.220500X0.735000X0.735000X0.220500X0.735000X-0.735000X-0.735000X-0.735000X324.000000*%
%ADD25Outline5P,-0.735000X0.735000X0.220500X0.735000X0.735000X0.220500X0.735000X-0.735000X-0.735000X-0.735000X270.000000*%
%ADD26Outline5P,-0.735000X0.735000X0.220500X0.735000X0.735000X0.220500X0.735000X-0.735000X-0.735000X-0.735000X180.000000*%
%ADD27Outline5P,-0.735000X0.735000X0.220500X0.735000X0.735000X0.220500X0.735000X-0.735000X-0.735000X-0.735000X90.000000*%
%ADD28Outline5P,-0.735000X0.735000X0.735000X0.735000X0.735000X-0.220500X0.220500X-0.735000X-0.735000X-0.735000X90.000000*%
%ADD29Outline5P,-0.735000X0.735000X0.220500X0.735000X0.735000X0.220500X0.735000X-0.735000X-0.735000X-0.735000X288.000000*%
%ADD30Outline5P,-0.735000X0.735000X0.220500X0.735000X0.735000X0.220500X0.735000X-0.735000X-0.735000X-0.735000X18.000000*%
%ADD31Outline5P,-0.735000X0.735000X0.735000X0.735000X0.735000X-0.220500X0.220500X-0.735000X-0.735000X-0.735000X198.000000*%
%ADD32Outline5P,-0.735000X0.735000X0.220500X0.735000X0.735000X0.220500X0.735000X-0.735000X-0.735000X-0.735000X198.000000*%
%ADD33Outline5P,-0.735000X0.735000X0.220500X0.735000X0.735000X0.220500X0.735000X-0.735000X-0.735000X-0.735000X27.000000*%
%ADD34Outline5P,-0.735000X0.735000X0.220500X0.735000X0.735000X0.220500X0.735000X-0.735000X-0.735000X-0.735000X117.000000*%
%ADD35Outline5P,-0.735000X0.735000X0.735000X0.735000X0.735000X-0.220500X0.220500X-0.735000X-0.735000X-0.735000X297.000000*%
%ADD36Outline5P,-0.735000X0.735000X0.220500X0.735000X0.735000X0.220500X0.735000X-0.735000X-0.735000X-0.735000X297.000000*%
%ADD37Outline5P,-0.735000X0.735000X0.220500X0.735000X0.735000X0.220500X0.735000X-0.735000X-0.735000X-0.735000X234.000000*%
%ADD38Outline5P,-0.735000X0.735000X0.735000X0.735000X0.735000X-0.220500X0.220500X-0.735000X-0.735000X-0.735000X234.000000*%
%ADD39Outline5P,-0.735000X0.735000X0.220500X0.735000X0.735000X0.220500X0.735000X-0.735000X-0.735000X-0.735000X9.000000*%
%ADD40Outline5P,-0.735000X0.735000X0.220500X0.735000X0.735000X0.220500X0.735000X-0.735000X-0.735000X-0.735000X279.000000*%
%ADD41Outline5P,-0.735000X0.735000X0.735000X0.735000X0.735000X-0.220500X0.220500X-0.735000X-0.735000X-0.735000X189.000000*%
%ADD42Outline5P,-0.735000X0.735000X0.220500X0.735000X0.735000X0.220500X0.735000X-0.735000X-0.735000X-0.735000X189.000000*%
%ADD43Outline5P,-0.735000X0.735000X0.220500X0.735000X0.735000X0.220500X0.735000X-0.735000X-0.735000X-0.735000X315.000000*%
%ADD44Outline5P,-0.735000X0.735000X0.220500X0.735000X0.735000X0.220500X0.735000X-0.735000X-0.735000X-0.735000X45.000000*%
%ADD45Outline5P,-0.735000X0.735000X0.220500X0.735000X0.735000X0.220500X0.735000X-0.735000X-0.735000X-0.735000X225.000000*%
%ADD46Outline5P,-0.735000X0.735000X0.735000X0.735000X0.735000X-0.220500X0.220500X-0.735000X-0.735000X-0.735000X225.000000*%
%ADD47Outline5P,-0.735000X0.735000X0.220500X0.735000X0.735000X0.220500X0.735000X-0.735000X-0.735000X-0.735000X243.000000*%
%ADD48Outline5P,-0.735000X0.735000X0.735000X0.735000X0.735000X-0.220500X0.220500X-0.735000X-0.735000X-0.735000X243.000000*%
%ADD49Outline5P,-0.735000X0.735000X0.220500X0.735000X0.735000X0.220500X0.735000X-0.735000X-0.735000X-0.735000X351.000000*%
%ADD50Outline5P,-0.735000X0.735000X0.220500X0.735000X0.735000X0.220500X0.735000X-0.735000X-0.735000X-0.735000X261.000000*%
%ADD51Outline5P,-0.735000X0.735000X0.735000X0.735000X0.735000X-0.220500X0.220500X-0.735000X-0.735000X-0.735000X171.000000*%
%ADD52Outline5P,-0.735000X0.735000X0.220500X0.735000X0.735000X0.220500X0.735000X-0.735000X-0.735000X-0.735000X171.000000*%
%ADD53RoundRect,0.225000X-0.250000X0.225000X-0.250000X-0.225000X0.250000X-0.225000X0.250000X0.225000X0*%
%ADD54RotRect,0.500000X3.250000X135.000000*%
%ADD55RotRect,1.300000X3.250000X135.000000*%
%ADD56Outline5P,-0.735000X0.735000X0.220500X0.735000X0.735000X0.220500X0.735000X-0.735000X-0.735000X-0.735000X0.000000*%
%ADD57Outline5P,-0.735000X0.735000X0.735000X0.735000X0.735000X-0.220500X0.220500X-0.735000X-0.735000X-0.735000X180.000000*%
%ADD58RoundRect,0.200000X-0.275000X0.200000X-0.275000X-0.200000X0.275000X-0.200000X0.275000X0.200000X0*%
%ADD59RoundRect,0.200000X-0.200000X-0.275000X0.200000X-0.275000X0.200000X0.275000X-0.200000X0.275000X0*%
%ADD60RoundRect,0.245000X0.245000X-0.245000X0.245000X0.245000X-0.245000X0.245000X-0.245000X-0.245000X0*%
%ADD61RoundRect,0.050000X0.050000X-0.362500X0.050000X0.362500X-0.050000X0.362500X-0.050000X-0.362500X0*%
%ADD62RoundRect,0.050000X0.362500X-0.050000X0.362500X0.050000X-0.362500X0.050000X-0.362500X-0.050000X0*%
%ADD63Outline5P,-0.735000X0.735000X0.220500X0.735000X0.735000X0.220500X0.735000X-0.735000X-0.735000X-0.735000X99.000000*%
%ADD64Outline5P,-0.735000X0.735000X0.735000X0.735000X0.735000X-0.220500X0.220500X-0.735000X-0.735000X-0.735000X9.000000*%
%ADD65Outline5P,-0.735000X0.735000X0.220500X0.735000X0.735000X0.220500X0.735000X-0.735000X-0.735000X-0.735000X216.000000*%
%ADD66Outline5P,-0.735000X0.735000X0.220500X0.735000X0.735000X0.220500X0.735000X-0.735000X-0.735000X-0.735000X126.000000*%
%ADD67Outline5P,-0.735000X0.735000X0.735000X0.735000X0.735000X-0.220500X0.220500X-0.735000X-0.735000X-0.735000X36.000000*%
%ADD68Outline5P,-0.735000X0.735000X0.220500X0.735000X0.735000X0.220500X0.735000X-0.735000X-0.735000X-0.735000X36.000000*%
%ADD69Outline5P,-0.735000X0.735000X0.220500X0.735000X0.735000X0.220500X0.735000X-0.735000X-0.735000X-0.735000X108.000000*%
%ADD70Outline5P,-0.735000X0.735000X0.735000X0.735000X0.735000X-0.220500X0.220500X-0.735000X-0.735000X-0.735000X108.000000*%
%ADD71RotRect,0.500000X3.300000X144.000000*%
%ADD72RotRect,1.300000X3.300000X144.000000*%
%ADD73Outline5P,-0.735000X0.735000X0.735000X0.735000X0.735000X-0.220500X0.220500X-0.735000X-0.735000X-0.735000X270.000000*%
%ADD74Outline5P,-0.735000X0.735000X0.735000X0.735000X0.735000X-0.220500X0.220500X-0.735000X-0.735000X-0.735000X18.000000*%
%ADD75Outline5P,-0.735000X0.735000X0.735000X0.735000X0.735000X-0.220500X0.220500X-0.735000X-0.735000X-0.735000X153.000000*%
%ADD76RoundRect,0.237500X0.287500X0.237500X-0.287500X0.237500X-0.287500X-0.237500X0.287500X-0.237500X0*%
%ADD77Outline5P,-0.735000X0.735000X0.220500X0.735000X0.735000X0.220500X0.735000X-0.735000X-0.735000X-0.735000X81.000000*%
%ADD78Outline5P,-0.735000X0.735000X0.735000X0.735000X0.735000X-0.220500X0.220500X-0.735000X-0.735000X-0.735000X261.000000*%
%ADD79RotRect,0.500000X3.250000X279.000000*%
%ADD80RotRect,1.300000X3.250000X279.000000*%
%ADD81RoundRect,0.100000X-0.637500X-0.100000X0.637500X-0.100000X0.637500X0.100000X-0.637500X0.100000X0*%
%ADD82Outline5P,-0.735000X0.735000X0.735000X0.735000X0.735000X-0.220500X0.220500X-0.735000X-0.735000X-0.735000X81.000000*%
%ADD83RoundRect,0.250000X-0.312500X-1.075000X0.312500X-1.075000X0.312500X1.075000X-0.312500X1.075000X0*%
%ADD84RoundRect,0.250000X-0.325000X-0.650000X0.325000X-0.650000X0.325000X0.650000X-0.325000X0.650000X0*%
%ADD85Outline5P,-0.735000X0.735000X0.220500X0.735000X0.735000X0.220500X0.735000X-0.735000X-0.735000X-0.735000X162.000000*%
%ADD86Outline5P,-0.735000X0.735000X0.220500X0.735000X0.735000X0.220500X0.735000X-0.735000X-0.735000X-0.735000X72.000000*%
%ADD87Outline5P,-0.735000X0.735000X0.735000X0.735000X0.735000X-0.220500X0.220500X-0.735000X-0.735000X-0.735000X342.000000*%
%ADD88Outline5P,-0.735000X0.735000X0.220500X0.735000X0.735000X0.220500X0.735000X-0.735000X-0.735000X-0.735000X342.000000*%
%ADD89RotRect,0.500000X3.300000X216.000000*%
%ADD90RotRect,1.300000X3.300000X216.000000*%
%ADD91Outline5P,-0.735000X0.735000X0.735000X0.735000X0.735000X-0.220500X0.220500X-0.735000X-0.735000X-0.735000X252.000000*%
%ADD92Outline5P,-0.735000X0.735000X0.220500X0.735000X0.735000X0.220500X0.735000X-0.735000X-0.735000X-0.735000X252.000000*%
%ADD93RoundRect,0.250000X0.275000X2.125000X-0.275000X2.125000X-0.275000X-2.125000X0.275000X-2.125000X0*%
%ADD94RoundRect,0.225000X0.225000X0.250000X-0.225000X0.250000X-0.225000X-0.250000X0.225000X-0.250000X0*%
%ADD95RotRect,0.500000X3.250000X63.000000*%
%ADD96RotRect,1.300000X3.250000X63.000000*%
%ADD97R,0.500000X3.300000*%
%ADD98R,1.300000X3.300000*%
%ADD99RotRect,0.500000X3.300000X288.000000*%
%ADD100RotRect,1.300000X3.300000X288.000000*%
%ADD101Outline5P,-0.735000X0.735000X0.220500X0.735000X0.735000X0.220500X0.735000X-0.735000X-0.735000X-0.735000X207.000000*%
%ADD102Outline5P,-0.735000X0.735000X0.735000X0.735000X0.735000X-0.220500X0.220500X-0.735000X-0.735000X-0.735000X27.000000*%
%ADD103Outline5P,-0.735000X0.735000X0.220500X0.735000X0.735000X0.220500X0.735000X-0.735000X-0.735000X-0.735000X135.000000*%
%ADD104Outline5P,-0.735000X0.735000X0.735000X0.735000X0.735000X-0.220500X0.220500X-0.735000X-0.735000X-0.735000X45.000000*%
%ADD105Outline5P,-0.735000X0.735000X0.735000X0.735000X0.735000X-0.220500X0.220500X-0.735000X-0.735000X-0.735000X117.000000*%
%ADD106Outline5P,-0.735000X0.735000X0.735000X0.735000X0.735000X-0.220500X0.220500X-0.735000X-0.735000X-0.735000X54.000000*%
%ADD107Outline5P,-0.735000X0.735000X0.735000X0.735000X0.735000X-0.220500X0.220500X-0.735000X-0.735000X-0.735000X162.000000*%
%ADD108RoundRect,0.200000X0.200000X0.275000X-0.200000X0.275000X-0.200000X-0.275000X0.200000X-0.275000X0*%
%ADD109RotRect,0.500000X3.300000X72.000000*%
%ADD110RotRect,1.300000X3.300000X72.000000*%
%ADD111RotRect,0.500000X3.250000X351.000000*%
%ADD112RotRect,1.300000X3.250000X351.000000*%
%ADD113Outline5P,-0.735000X0.735000X0.220500X0.735000X0.735000X0.220500X0.735000X-0.735000X-0.735000X-0.735000X306.000000*%
%ADD114Outline5P,-0.735000X0.735000X0.735000X0.735000X0.735000X-0.220500X0.220500X-0.735000X-0.735000X-0.735000X126.000000*%
%ADD115Outline5P,-0.735000X0.735000X0.735000X0.735000X0.735000X-0.220500X0.220500X-0.735000X-0.735000X-0.735000X315.000000*%
%ADD116Outline5P,-0.735000X0.735000X0.735000X0.735000X0.735000X-0.220500X0.220500X-0.735000X-0.735000X-0.735000X99.000000*%
%ADD117Outline5P,-0.735000X0.735000X0.735000X0.735000X0.735000X-0.220500X0.220500X-0.735000X-0.735000X-0.735000X306.000000*%
%ADD118RotRect,0.500000X3.250000X207.000000*%
%ADD119RotRect,1.300000X3.250000X207.000000*%
%ADD120R,0.700000X0.350000*%
%ADD121R,0.990000X0.405000*%
%ADD122FreePoly0,0.000000*%
G04 APERTURE END LIST*
D10*
%TO.C,C17*%
X199500000Y-28900000D03*
X201050000Y-28900000D03*
%TD*%
D11*
%TO.C,C37*%
X256950000Y-111875001D03*
X256950000Y-110325001D03*
%TD*%
D12*
%TO.C,R17*%
X227275000Y-136425000D03*
X230225000Y-136425000D03*
%TD*%
D10*
%TO.C,C16*%
X199450000Y-30550000D03*
X201000000Y-30550000D03*
%TD*%
D13*
%TO.C,D45*%
X109589994Y-33225968D03*
D14*
X107774032Y-36789994D03*
D15*
X106025968Y-31410006D03*
D16*
X104210006Y-34974032D03*
D17*
X106900000Y-34100000D03*
%TD*%
D18*
%TO.C,D82*%
X196425000Y-40650000D03*
X198525000Y-40650000D03*
%TD*%
D19*
%TO.C,U22*%
X224500000Y-27330000D03*
X224500000Y-28600000D03*
X224500000Y-29870000D03*
X224500000Y-31140000D03*
X224500000Y-32410000D03*
X224500000Y-33680000D03*
X224500000Y-34950000D03*
X224500000Y-36220000D03*
X233800000Y-36220000D03*
X233800000Y-34950000D03*
X233800000Y-33680000D03*
X233800000Y-32410000D03*
X233800000Y-31140000D03*
X233800000Y-29870000D03*
X233800000Y-28600000D03*
X233800000Y-27330000D03*
%TD*%
D20*
%TO.C,U3*%
X260492500Y-97255000D03*
X260492500Y-98205000D03*
X260492500Y-99155000D03*
X262767500Y-99155000D03*
X262767500Y-97255000D03*
%TD*%
D21*
%TO.C,D5*%
X110666117Y-46921593D03*
D22*
X113017258Y-43685526D03*
D23*
X109781191Y-41334385D03*
D24*
X107430050Y-44570452D03*
D17*
X110223654Y-44127989D03*
%TD*%
D25*
%TO.C,D72*%
X25500000Y-80900000D03*
D26*
X29500000Y-80900000D03*
D27*
X29500000Y-84900000D03*
D28*
X25500000Y-84900000D03*
D17*
X27500000Y-82900000D03*
%TD*%
D10*
%TO.C,C33*%
X215475002Y-132049999D03*
X217025002Y-132049999D03*
%TD*%
D29*
%TO.C,D60*%
X96479853Y-133415921D03*
D30*
X97715921Y-137220147D03*
D31*
X101520147Y-135984079D03*
D32*
X100284079Y-132179853D03*
D17*
X99000000Y-134700000D03*
%TD*%
D33*
%TO.C,D49*%
X130025968Y-60689994D03*
D34*
X133589994Y-58874032D03*
D35*
X131774032Y-55310006D03*
D36*
X128210006Y-57125968D03*
D17*
X130900000Y-58000000D03*
%TD*%
D24*
%TO.C,D15*%
X117971050Y-111245452D03*
D21*
X121207117Y-113596593D03*
D37*
X120322191Y-108009385D03*
D38*
X123558258Y-110360526D03*
D17*
X120764654Y-110802989D03*
%TD*%
D39*
%TO.C,D20*%
X87860146Y-132395235D03*
D40*
X87234408Y-128444481D03*
D41*
X91810900Y-131769497D03*
D42*
X91185162Y-127818743D03*
D17*
X89522654Y-130106989D03*
%TD*%
D43*
%TO.C,D16*%
X113110227Y-116644989D03*
D44*
X115938654Y-119473416D03*
D45*
X115938654Y-113816562D03*
D46*
X118767081Y-116644989D03*
D17*
X115938654Y-116644989D03*
%TD*%
D14*
%TO.C,D14*%
X125575686Y-107142983D03*
D16*
X122011660Y-105327021D03*
D47*
X123827622Y-101762995D03*
D48*
X127391648Y-103578957D03*
D17*
X124701654Y-104452989D03*
%TD*%
D20*
%TO.C,U1*%
X245262500Y-131650000D03*
X245262500Y-132600000D03*
X245262500Y-133550000D03*
X247537500Y-133550000D03*
X247537500Y-131650000D03*
%TD*%
D39*
%TO.C,D61*%
X89037492Y-139088246D03*
D40*
X88411754Y-135137492D03*
D42*
X92362508Y-134511754D03*
D41*
X92988246Y-138462508D03*
D17*
X90700000Y-136800000D03*
%TD*%
D49*
%TO.C,D63*%
X71311754Y-138462508D03*
D50*
X71937492Y-134511754D03*
D51*
X75262508Y-139088246D03*
D52*
X75888246Y-135137492D03*
D17*
X73600000Y-136800000D03*
%TD*%
D11*
%TO.C,C11*%
X274400000Y-78550000D03*
X274400000Y-77000000D03*
%TD*%
D53*
%TO.C,C8*%
X209800000Y-27200000D03*
X209800000Y-28750000D03*
%TD*%
D54*
%TO.C,D67*%
X42727728Y-120327728D03*
X44672272Y-122272272D03*
D55*
X43700000Y-121300000D03*
%TD*%
D56*
%TO.C,D21*%
X80029654Y-132487989D03*
D25*
X80029654Y-128487989D03*
D26*
X84029654Y-128487989D03*
D57*
X84029654Y-132487989D03*
D17*
X82029654Y-130487989D03*
%TD*%
D58*
%TO.C,R8*%
X269325000Y-75375000D03*
X269325000Y-77025000D03*
%TD*%
D59*
%TO.C,R19*%
X239400000Y-38800000D03*
X241050000Y-38800000D03*
%TD*%
D11*
%TO.C,C9*%
X256755000Y-119255001D03*
X256755000Y-117705001D03*
%TD*%
D60*
%TO.C,U9*%
X269890000Y-81785000D03*
X268710000Y-82965000D03*
X269890000Y-82965000D03*
X268710000Y-81785000D03*
D61*
X268100000Y-84312500D03*
X268500000Y-84312500D03*
X268900000Y-84312500D03*
X269300000Y-84312500D03*
X269700000Y-84312500D03*
X270100000Y-84312500D03*
X270500000Y-84312500D03*
D62*
X271237500Y-83575000D03*
X271237500Y-83175000D03*
X271237500Y-82775000D03*
X271237500Y-82375000D03*
X271237500Y-81975000D03*
X271237500Y-81575000D03*
X271237500Y-81175000D03*
D61*
X270500000Y-80437500D03*
X270100000Y-80437500D03*
X269700000Y-80437500D03*
X269300000Y-80437500D03*
X268900000Y-80437500D03*
X268500000Y-80437500D03*
X268100000Y-80437500D03*
D62*
X267362500Y-81175000D03*
X267362500Y-81575000D03*
X267362500Y-81975000D03*
X267362500Y-82375000D03*
X267362500Y-82775000D03*
X267362500Y-83175000D03*
X267362500Y-83575000D03*
%TD*%
D49*
%TO.C,D22*%
X72375408Y-131769497D03*
D50*
X73001146Y-127818743D03*
D51*
X76326162Y-132395235D03*
D52*
X76951900Y-128444481D03*
D17*
X74663654Y-130106989D03*
%TD*%
D42*
%TO.C,D81*%
X75262508Y-26511754D03*
D63*
X75888246Y-30462508D03*
D39*
X71937492Y-31088246D03*
D64*
X71311754Y-27137492D03*
D17*
X73600000Y-28800000D03*
%TD*%
D65*
%TO.C,D38*%
X54442463Y-41306396D03*
D66*
X56793604Y-44542463D03*
D67*
X51206396Y-43657537D03*
D68*
X53557537Y-46893604D03*
D17*
X54000000Y-44100000D03*
%TD*%
D29*
%TO.C,D19*%
X94368507Y-127044910D03*
D30*
X95604575Y-130849136D03*
D31*
X99408801Y-129613068D03*
D32*
X98172733Y-125808842D03*
D17*
X96888654Y-128328989D03*
%TD*%
D29*
%TO.C,D29*%
X34297507Y-96310910D03*
D32*
X38101733Y-95074842D03*
D69*
X39337801Y-98879068D03*
D70*
X35533575Y-100115136D03*
D17*
X36817654Y-97594989D03*
%TD*%
D20*
%TO.C,U8*%
X260275000Y-111905000D03*
X260275000Y-112855000D03*
X260275000Y-113805000D03*
X262550000Y-113805000D03*
X262550000Y-111905000D03*
%TD*%
D11*
%TO.C,C10*%
X264412500Y-112605001D03*
X264412500Y-111055001D03*
%TD*%
D71*
%TO.C,D25*%
X53084030Y-120521090D03*
X55349278Y-122166888D03*
D72*
X54216654Y-121343989D03*
%TD*%
D27*
%TO.C,D11*%
X131908654Y-84862989D03*
D56*
X127908654Y-84862989D03*
D73*
X131908654Y-80862989D03*
D25*
X127908654Y-80862989D03*
D17*
X129908654Y-82862989D03*
%TD*%
D32*
%TO.C,D40*%
X68684079Y-34879853D03*
D69*
X69920147Y-38684079D03*
D74*
X64879853Y-36115921D03*
D30*
X66115921Y-39920147D03*
D17*
X67400000Y-37400000D03*
%TD*%
D63*
%TO.C,D41*%
X76925738Y-37350754D03*
D42*
X76300000Y-33400000D03*
D39*
X72974984Y-37976492D03*
D64*
X72349246Y-34025738D03*
D17*
X74637492Y-35688246D03*
%TD*%
D10*
%TO.C,C29*%
X215500002Y-136824999D03*
X217050002Y-136824999D03*
%TD*%
D11*
%TO.C,C5*%
X264437500Y-119850001D03*
X264437500Y-118300001D03*
%TD*%
D58*
%TO.C,R9*%
X273925000Y-83400000D03*
X273925000Y-85050000D03*
%TD*%
D47*
%TO.C,D65*%
X56425968Y-128810006D03*
D16*
X54610006Y-132374032D03*
D13*
X59989994Y-130625968D03*
D75*
X58174032Y-134189994D03*
D17*
X57300000Y-131500000D03*
%TD*%
D76*
%TO.C,D84*%
X162600000Y-68775000D03*
X160850000Y-68775000D03*
%TD*%
D11*
%TO.C,C12*%
X271250000Y-77025000D03*
X271250000Y-75475000D03*
%TD*%
D20*
%TO.C,U21*%
X252812500Y-111175000D03*
X252812500Y-112125000D03*
X252812500Y-113075000D03*
X255087500Y-113075000D03*
X255087500Y-111175000D03*
%TD*%
D49*
%TO.C,D12*%
X126985408Y-91891497D03*
D77*
X130936162Y-92517235D03*
D78*
X131561900Y-88566481D03*
D50*
X127611146Y-87940743D03*
D17*
X129273654Y-90228989D03*
%TD*%
D79*
%TO.C,D10*%
X129234751Y-76601060D03*
X128804557Y-73884918D03*
D80*
X129019654Y-75242989D03*
%TD*%
D14*
%TO.C,D4*%
X104747686Y-42880983D03*
D13*
X106563648Y-39316957D03*
D15*
X102999622Y-37500995D03*
D16*
X101183660Y-41065021D03*
D17*
X103873654Y-40190989D03*
%TD*%
D11*
%TO.C,C1*%
X249400000Y-132350000D03*
X249400000Y-130800000D03*
%TD*%
%TO.C,C2*%
X264480000Y-105255001D03*
X264480000Y-103705001D03*
%TD*%
D81*
%TO.C,U10*%
X191712500Y-31175000D03*
X191712500Y-31825000D03*
X191712500Y-32475000D03*
X191712500Y-33125000D03*
X191712500Y-33775000D03*
X191712500Y-34425000D03*
X191712500Y-35075000D03*
X191712500Y-35725000D03*
X197437500Y-35725000D03*
X197437500Y-35075000D03*
X197437500Y-34425000D03*
X197437500Y-33775000D03*
X197437500Y-33125000D03*
X197437500Y-32475000D03*
X197437500Y-31825000D03*
X197437500Y-31175000D03*
%TD*%
D50*
%TO.C,D32*%
X33250146Y-73081743D03*
D52*
X37200900Y-73707481D03*
D82*
X32624408Y-77032497D03*
D77*
X36575162Y-77658235D03*
D17*
X34912654Y-75369989D03*
%TD*%
D83*
%TO.C,F1*%
X191237500Y-38950000D03*
X194162500Y-38950000D03*
%TD*%
D84*
%TO.C,C28*%
X215575002Y-129724999D03*
X218525002Y-129724999D03*
%TD*%
D85*
%TO.C,D3*%
X99408801Y-36112910D03*
D86*
X98172733Y-39917136D03*
D87*
X95604575Y-34876842D03*
D88*
X94368507Y-38681068D03*
D17*
X96888654Y-37396989D03*
%TD*%
D89*
%TO.C,D17*%
X109091030Y-122039888D03*
X111356278Y-120394090D03*
D90*
X110223654Y-121216989D03*
%TD*%
D86*
%TO.C,D13*%
X128779733Y-100115136D03*
D88*
X124975507Y-98879068D03*
D91*
X130015801Y-96310910D03*
D92*
X126211575Y-95074842D03*
D17*
X127495654Y-97594989D03*
%TD*%
D32*
%TO.C,D70*%
X31484079Y-97179853D03*
D29*
X27679853Y-98415921D03*
D69*
X32720147Y-100984079D03*
D70*
X28915921Y-102220147D03*
D17*
X30200000Y-99700000D03*
%TD*%
D11*
%TO.C,C4*%
X256655000Y-127105001D03*
X256655000Y-125555001D03*
%TD*%
D93*
%TO.C,R15*%
X224900000Y-136525000D03*
X221950000Y-136525000D03*
%TD*%
D10*
%TO.C,C35*%
X237000000Y-131425000D03*
X238550000Y-131425000D03*
%TD*%
D94*
%TO.C,C13*%
X269535000Y-87284999D03*
X267985000Y-87284999D03*
%TD*%
D95*
%TO.C,D75*%
X33824237Y-56674866D03*
X32575763Y-59125134D03*
D96*
X33200000Y-57900000D03*
%TD*%
D97*
%TO.C,D42*%
X83400000Y-28100000D03*
X80600000Y-28100000D03*
D98*
X82000000Y-28100000D03*
%TD*%
D56*
%TO.C,D62*%
X80000000Y-139500000D03*
D25*
X80000000Y-135500000D03*
D26*
X84000000Y-135500000D03*
D57*
X84000000Y-139500000D03*
D17*
X82000000Y-137500000D03*
%TD*%
D50*
%TO.C,D73*%
X26537492Y-72011754D03*
D52*
X30488246Y-72637492D03*
D77*
X29862508Y-76588246D03*
D82*
X25911754Y-75962508D03*
D17*
X28200000Y-74300000D03*
%TD*%
D20*
%TO.C,U4*%
X252517500Y-126405000D03*
X252517500Y-127355000D03*
X252517500Y-128305000D03*
X254792500Y-128305000D03*
X254792500Y-126405000D03*
%TD*%
D93*
%TO.C,R16*%
X224900000Y-130700000D03*
X221950000Y-130700000D03*
%TD*%
D99*
%TO.C,D50*%
X134532624Y-67231479D03*
X133667376Y-64568521D03*
D100*
X134100000Y-65900000D03*
%TD*%
D101*
%TO.C,D79*%
X58274032Y-31310006D03*
D34*
X60089994Y-34874032D03*
D33*
X56525968Y-36689994D03*
D102*
X54710006Y-33125968D03*
D17*
X57400000Y-34000000D03*
%TD*%
D45*
%TO.C,D77*%
X43500000Y-41371573D03*
D103*
X46328427Y-44200000D03*
D44*
X43500000Y-47028427D03*
D104*
X40671573Y-44200000D03*
D17*
X43500000Y-44200000D03*
%TD*%
D101*
%TO.C,D69*%
X34374032Y-105010006D03*
D36*
X30810006Y-106825968D03*
D105*
X32625968Y-110389994D03*
D34*
X36189994Y-108574032D03*
D17*
X33500000Y-107700000D03*
%TD*%
D47*
%TO.C,D24*%
X59565622Y-122590995D03*
D16*
X57749660Y-126155021D03*
D13*
X63129648Y-124406957D03*
D75*
X61313686Y-127970983D03*
D17*
X60439654Y-125280989D03*
%TD*%
D37*
%TO.C,D36*%
X43057537Y-52006396D03*
D22*
X46293604Y-54357537D03*
D106*
X40706396Y-55242463D03*
D21*
X43942463Y-57593604D03*
D17*
X43500000Y-54800000D03*
%TD*%
D32*
%TO.C,D80*%
X66684079Y-28279853D03*
D69*
X67920147Y-32084079D03*
D30*
X64115921Y-33320147D03*
D74*
X62879853Y-29515921D03*
D17*
X65400000Y-30800000D03*
%TD*%
D103*
%TO.C,D37*%
X51228427Y-49000000D03*
D45*
X48400000Y-46171573D03*
D104*
X45571573Y-49000000D03*
D44*
X48400000Y-51828427D03*
D17*
X48400000Y-49000000D03*
%TD*%
D36*
%TO.C,D28*%
X36794660Y-103705957D03*
D101*
X40358686Y-101889995D03*
D34*
X42174648Y-105454021D03*
D105*
X38610622Y-107269983D03*
D17*
X39484654Y-104579989D03*
%TD*%
D34*
%TO.C,D8*%
X127391648Y-61893021D03*
D33*
X123827622Y-63708983D03*
D36*
X122011660Y-60144957D03*
D35*
X125575686Y-58328995D03*
D17*
X124701654Y-61018989D03*
%TD*%
D20*
%TO.C,U7*%
X252617500Y-118555000D03*
X252617500Y-119505000D03*
X252617500Y-120455000D03*
X254892500Y-120455000D03*
X254892500Y-118555000D03*
%TD*%
%TO.C,U5*%
X260300000Y-119150000D03*
X260300000Y-120100000D03*
X260300000Y-121050000D03*
X262575000Y-121050000D03*
X262575000Y-119150000D03*
%TD*%
D86*
%TO.C,D44*%
X100184079Y-33420147D03*
D85*
X101420147Y-29615921D03*
D88*
X96379853Y-32184079D03*
D87*
X97615921Y-28379853D03*
D17*
X98900000Y-30900000D03*
%TD*%
D92*
%TO.C,D64*%
X63915921Y-132179853D03*
D88*
X62679853Y-135984079D03*
D85*
X67720147Y-133415921D03*
D107*
X66484079Y-137220147D03*
D17*
X65200000Y-134700000D03*
%TD*%
D108*
%TO.C,R11*%
X166275000Y-68775000D03*
X164625000Y-68775000D03*
%TD*%
D11*
%TO.C,C7*%
X215900000Y-28750000D03*
X215900000Y-27200000D03*
%TD*%
D20*
%TO.C,U2*%
X260342500Y-104555000D03*
X260342500Y-105505000D03*
X260342500Y-106455000D03*
X262617500Y-106455000D03*
X262617500Y-104555000D03*
%TD*%
D109*
%TO.C,D33*%
X37032624Y-66799510D03*
X36167376Y-69462468D03*
D110*
X36600000Y-68130989D03*
%TD*%
D111*
%TO.C,D43*%
X91858071Y-28915097D03*
X89141929Y-28484903D03*
D112*
X90500000Y-28700000D03*
%TD*%
D97*
%TO.C,D1*%
X83429654Y-34983989D03*
X80629654Y-34983989D03*
D98*
X82029654Y-34983989D03*
%TD*%
D86*
%TO.C,D54*%
X135384079Y-102220147D03*
D88*
X131579853Y-100984079D03*
D92*
X132815921Y-97179853D03*
D91*
X136620147Y-98415921D03*
D17*
X134100000Y-99700000D03*
%TD*%
D65*
%TO.C,D27*%
X43991117Y-108136385D03*
D113*
X40755050Y-110487526D03*
D114*
X43106191Y-113723593D03*
D66*
X46342258Y-111372452D03*
D17*
X43548654Y-110929989D03*
%TD*%
D10*
%TO.C,C38*%
X219375000Y-28575000D03*
X220925000Y-28575000D03*
%TD*%
%TO.C,C6*%
X212200000Y-26375000D03*
X213750000Y-26375000D03*
%TD*%
D44*
%TO.C,D6*%
X115938654Y-51782416D03*
D103*
X118767081Y-48953989D03*
D115*
X115938654Y-46125562D03*
D43*
X113110227Y-48953989D03*
D17*
X115938654Y-48953989D03*
%TD*%
D65*
%TO.C,D78*%
X50448859Y-35863933D03*
D66*
X52800000Y-39100000D03*
D68*
X49563933Y-41451141D03*
D67*
X47212792Y-38215074D03*
D17*
X50006396Y-38657537D03*
%TD*%
D42*
%TO.C,D71*%
X29962508Y-89111754D03*
D40*
X26011754Y-89737492D03*
D63*
X30588246Y-93062508D03*
D116*
X26637492Y-93688246D03*
D17*
X28300000Y-91400000D03*
%TD*%
D68*
%TO.C,D48*%
X125957537Y-53393604D03*
D66*
X129193604Y-51042463D03*
D113*
X123606396Y-50157537D03*
D117*
X126842463Y-47806396D03*
D17*
X126400000Y-50600000D03*
%TD*%
D59*
%TO.C,R18*%
X239350000Y-40500000D03*
X241000000Y-40500000D03*
%TD*%
D14*
%TO.C,D55*%
X131674032Y-110289994D03*
D16*
X128110006Y-108474032D03*
D47*
X129925968Y-104910006D03*
D48*
X133489994Y-106725968D03*
D17*
X130800000Y-107600000D03*
%TD*%
D11*
%TO.C,C3*%
X264630000Y-97955001D03*
X264630000Y-96405001D03*
%TD*%
D92*
%TO.C,D23*%
X66013575Y-125681842D03*
D88*
X64777507Y-129486068D03*
D85*
X69817801Y-126917910D03*
D107*
X68581733Y-130722136D03*
D17*
X67297654Y-128201989D03*
%TD*%
D111*
%TO.C,D2*%
X90880725Y-35961086D03*
X88164583Y-35530892D03*
D112*
X89522654Y-35745989D03*
%TD*%
D18*
%TO.C,D34*%
X196400000Y-38300000D03*
X198500000Y-38300000D03*
%TD*%
D10*
%TO.C,C36*%
X237050000Y-133225000D03*
X238600000Y-133225000D03*
%TD*%
D65*
%TO.C,D68*%
X38442463Y-112206396D03*
D113*
X35206396Y-114557537D03*
D66*
X40793604Y-115442463D03*
D114*
X37557537Y-117793604D03*
D17*
X38000000Y-115000000D03*
%TD*%
D89*
%TO.C,D58*%
X113334752Y-127845799D03*
X115600000Y-126200001D03*
D90*
X114467376Y-127022900D03*
%TD*%
D68*
%TO.C,D7*%
X120322191Y-57589593D03*
D66*
X123558258Y-55238452D03*
D117*
X121207117Y-52002385D03*
D113*
X117971050Y-54353526D03*
D17*
X120764654Y-54795989D03*
%TD*%
D118*
%TO.C,D59*%
X105674866Y-131924237D03*
X108125134Y-130675763D03*
D119*
X106900000Y-131300000D03*
%TD*%
D27*
%TO.C,D52*%
X138700000Y-84800000D03*
D56*
X134700000Y-84800000D03*
D73*
X138700000Y-80800000D03*
D25*
X134700000Y-80800000D03*
D17*
X136700000Y-82800000D03*
%TD*%
D21*
%TO.C,D56*%
X126842463Y-117693604D03*
D24*
X123606396Y-115342463D03*
D37*
X125957537Y-112106396D03*
D38*
X129193604Y-114457537D03*
D17*
X126400000Y-114900000D03*
%TD*%
D71*
%TO.C,D66*%
X49067376Y-126277101D03*
X51332624Y-127922899D03*
D72*
X50200000Y-127100000D03*
%TD*%
D84*
%TO.C,C34*%
X215625002Y-134449999D03*
X218575002Y-134449999D03*
%TD*%
D37*
%TO.C,D76*%
X37457537Y-48006396D03*
D22*
X40693604Y-50357537D03*
D106*
X35106396Y-51242463D03*
D21*
X38342463Y-53593604D03*
D17*
X37900000Y-50800000D03*
%TD*%
D40*
%TO.C,D30*%
X32624408Y-88693481D03*
D42*
X36575162Y-88067743D03*
D63*
X37200900Y-92018497D03*
D116*
X33250146Y-92644235D03*
D17*
X34912654Y-90355989D03*
%TD*%
D120*
%TO.C,U6*%
X214025000Y-28400000D03*
X214025000Y-29050000D03*
X214025000Y-29700000D03*
X214025000Y-30350000D03*
X211775000Y-30350000D03*
X211775000Y-29700000D03*
X211775000Y-29050000D03*
X211775000Y-28400000D03*
%TD*%
D25*
%TO.C,D31*%
X32277654Y-80862989D03*
D26*
X36277654Y-80862989D03*
D27*
X36277654Y-84862989D03*
D28*
X32277654Y-84862989D03*
D17*
X34277654Y-82862989D03*
%TD*%
D81*
%TO.C,U20*%
X229062500Y-126550000D03*
X229062500Y-127200000D03*
X229062500Y-127850000D03*
X229062500Y-128500000D03*
X229062500Y-129150000D03*
X229062500Y-129800000D03*
X229062500Y-130450000D03*
X229062500Y-131100000D03*
X234787500Y-131100000D03*
X234787500Y-130450000D03*
X234787500Y-129800000D03*
X234787500Y-129150000D03*
X234787500Y-128500000D03*
X234787500Y-127850000D03*
X234787500Y-127200000D03*
X234787500Y-126550000D03*
%TD*%
D118*
%TO.C,D18*%
X102648520Y-125905226D03*
X105098788Y-124656752D03*
D119*
X103873654Y-125280989D03*
%TD*%
D21*
%TO.C,D46*%
X114742463Y-41393604D03*
D22*
X117093604Y-38157537D03*
D24*
X111506396Y-39042463D03*
D23*
X113857537Y-35806396D03*
D17*
X114300000Y-38600000D03*
%TD*%
D95*
%TO.C,D35*%
X39924237Y-60074866D03*
X38675763Y-62525134D03*
D96*
X39300000Y-61300000D03*
%TD*%
D34*
%TO.C,D39*%
X63189994Y-41174032D03*
D101*
X61374032Y-37610006D03*
D33*
X59625968Y-42989994D03*
D102*
X57810006Y-39425968D03*
D17*
X60500000Y-40300000D03*
%TD*%
D44*
%TO.C,D47*%
X120700000Y-47028427D03*
D103*
X123528427Y-44200000D03*
D115*
X120700000Y-41371573D03*
D43*
X117871573Y-44200000D03*
D17*
X120700000Y-44200000D03*
%TD*%
D121*
%TO.C,Q8*%
X161265000Y-70685000D03*
X161265000Y-71345000D03*
X161265000Y-72005000D03*
X161265000Y-72665000D03*
D122*
X163257500Y-71675000D03*
%TD*%
D109*
%TO.C,D74*%
X30532624Y-64668521D03*
X29667376Y-67331479D03*
D110*
X30100000Y-66000000D03*
%TD*%
D54*
%TO.C,D26*%
X47529382Y-115672717D03*
X49473926Y-117617261D03*
D55*
X48501654Y-116644989D03*
%TD*%
D49*
%TO.C,D53*%
X133711754Y-92962508D03*
D77*
X137662508Y-93588246D03*
D78*
X138288246Y-89637492D03*
D50*
X134337492Y-89011754D03*
D17*
X136000000Y-91300000D03*
%TD*%
D79*
%TO.C,D51*%
X136115097Y-75658071D03*
X135684903Y-72941929D03*
D80*
X135900000Y-74300000D03*
%TD*%
D99*
%TO.C,D9*%
X127928278Y-69335468D03*
X127063030Y-66672510D03*
D100*
X127495654Y-68003989D03*
%TD*%
D44*
%TO.C,D57*%
X120800000Y-124228427D03*
D43*
X117971573Y-121400000D03*
D46*
X123628427Y-121400000D03*
D45*
X120800000Y-118571573D03*
D17*
X120800000Y-121400000D03*
%TD*%
D83*
%TO.C,F2*%
X191212500Y-42250000D03*
X194137500Y-42250000D03*
%TD*%
M02*
