%TF.GenerationSoftware,KiCad,Pcbnew,(6.0.9)*%
%TF.CreationDate,2022-12-31T16:19:11-08:00*%
%TF.ProjectId,LEDArray,4c454441-7272-4617-992e-6b696361645f,rev?*%
%TF.SameCoordinates,Original*%
%TF.FileFunction,Soldermask,Top*%
%TF.FilePolarity,Negative*%
%FSLAX46Y46*%
G04 Gerber Fmt 4.6, Leading zero omitted, Abs format (unit mm)*
G04 Created by KiCad (PCBNEW (6.0.9)) date 2022-12-31 16:19:11*
%MOMM*%
%LPD*%
G01*
G04 APERTURE LIST*
G04 Aperture macros list*
%AMRoundRect*
0 Rectangle with rounded corners*
0 $1 Rounding radius*
0 $2 $3 $4 $5 $6 $7 $8 $9 X,Y pos of 4 corners*
0 Add a 4 corners polygon primitive as box body*
4,1,4,$2,$3,$4,$5,$6,$7,$8,$9,$2,$3,0*
0 Add four circle primitives for the rounded corners*
1,1,$1+$1,$2,$3*
1,1,$1+$1,$4,$5*
1,1,$1+$1,$6,$7*
1,1,$1+$1,$8,$9*
0 Add four rect primitives between the rounded corners*
20,1,$1+$1,$2,$3,$4,$5,0*
20,1,$1+$1,$4,$5,$6,$7,0*
20,1,$1+$1,$6,$7,$8,$9,0*
20,1,$1+$1,$8,$9,$2,$3,0*%
%AMHorizOval*
0 Thick line with rounded ends*
0 $1 width*
0 $2 $3 position (X,Y) of the first rounded end (center of the circle)*
0 $4 $5 position (X,Y) of the second rounded end (center of the circle)*
0 Add line between two ends*
20,1,$1,$2,$3,$4,$5,0*
0 Add two circle primitives to create the rounded ends*
1,1,$1,$2,$3*
1,1,$1,$4,$5*%
%AMRotRect*
0 Rectangle, with rotation*
0 The origin of the aperture is its center*
0 $1 length*
0 $2 width*
0 $3 Rotation angle, in degrees counterclockwise*
0 Add horizontal line*
21,1,$1,$2,0,0,$3*%
%AMOutline5P*
0 Free polygon, 5 corners , with rotation*
0 The origin of the aperture is its center*
0 number of corners: always 5*
0 $1 to $10 corner X, Y*
0 $11 Rotation angle, in degrees counterclockwise*
0 create outline with 5 corners*
4,1,5,$1,$2,$3,$4,$5,$6,$7,$8,$9,$10,$1,$2,$11*%
%AMOutline6P*
0 Free polygon, 6 corners , with rotation*
0 The origin of the aperture is its center*
0 number of corners: always 6*
0 $1 to $12 corner X, Y*
0 $13 Rotation angle, in degrees counterclockwise*
0 create outline with 6 corners*
4,1,6,$1,$2,$3,$4,$5,$6,$7,$8,$9,$10,$11,$12,$1,$2,$13*%
%AMOutline7P*
0 Free polygon, 7 corners , with rotation*
0 The origin of the aperture is its center*
0 number of corners: always 7*
0 $1 to $14 corner X, Y*
0 $15 Rotation angle, in degrees counterclockwise*
0 create outline with 7 corners*
4,1,7,$1,$2,$3,$4,$5,$6,$7,$8,$9,$10,$11,$12,$13,$14,$1,$2,$15*%
%AMOutline8P*
0 Free polygon, 8 corners , with rotation*
0 The origin of the aperture is its center*
0 number of corners: always 8*
0 $1 to $16 corner X, Y*
0 $17 Rotation angle, in degrees counterclockwise*
0 create outline with 8 corners*
4,1,8,$1,$2,$3,$4,$5,$6,$7,$8,$9,$10,$11,$12,$13,$14,$15,$16,$1,$2,$17*%
%AMFreePoly0*
4,1,22,0.500000,-0.750000,0.000000,-0.750000,0.000000,-0.745033,-0.079941,-0.743568,-0.215256,-0.701293,-0.333266,-0.622738,-0.424486,-0.514219,-0.481581,-0.384460,-0.499164,-0.250000,-0.500000,-0.250000,-0.500000,0.250000,-0.499164,0.250000,-0.499963,0.256109,-0.478152,0.396186,-0.417904,0.524511,-0.324060,0.630769,-0.204165,0.706417,-0.067858,0.745374,0.000000,0.744959,0.000000,0.750000,
0.500000,0.750000,0.500000,-0.750000,0.500000,-0.750000,$1*%
%AMFreePoly1*
4,1,20,0.000000,0.744959,0.073905,0.744508,0.209726,0.703889,0.328688,0.626782,0.421226,0.519385,0.479903,0.390333,0.500000,0.250000,0.500000,-0.250000,0.499851,-0.262216,0.476331,-0.402017,0.414519,-0.529596,0.319384,-0.634700,0.198574,-0.708877,0.061801,-0.746166,0.000000,-0.745033,0.000000,-0.750000,-0.500000,-0.750000,-0.500000,0.750000,0.000000,0.750000,0.000000,0.744959,
0.000000,0.744959,$1*%
%AMFreePoly2*
4,1,21,1.372500,0.787500,0.862500,0.787500,0.862500,0.532500,1.372500,0.532500,1.372500,0.127500,0.862500,0.127500,0.862500,-0.127500,1.372500,-0.127500,1.372500,-0.532500,0.862500,-0.532500,0.862500,-0.787500,1.372500,-0.787500,1.372500,-1.195000,0.612500,-1.195000,0.612500,-1.117500,-0.862500,-1.117500,-0.862500,1.117500,0.612500,1.117500,0.612500,1.195000,1.372500,1.195000,
1.372500,0.787500,1.372500,0.787500,$1*%
G04 Aperture macros list end*
%ADD10RoundRect,0.225000X-0.225000X-0.250000X0.225000X-0.250000X0.225000X0.250000X-0.225000X0.250000X0*%
%ADD11RoundRect,0.225000X0.250000X-0.225000X0.250000X0.225000X-0.250000X0.225000X-0.250000X-0.225000X0*%
%ADD12RoundRect,0.250000X-0.275000X-2.125000X0.275000X-2.125000X0.275000X2.125000X-0.275000X2.125000X0*%
%ADD13C,5.500000*%
%ADD14Outline5P,-0.735000X0.735000X0.220500X0.735000X0.735000X0.220500X0.735000X-0.735000X-0.735000X-0.735000X153.000000*%
%ADD15Outline5P,-0.735000X0.735000X0.220500X0.735000X0.735000X0.220500X0.735000X-0.735000X-0.735000X-0.735000X63.000000*%
%ADD16Outline5P,-0.735000X0.735000X0.735000X0.735000X0.735000X-0.220500X0.220500X-0.735000X-0.735000X-0.735000X333.000000*%
%ADD17Outline5P,-0.735000X0.735000X0.220500X0.735000X0.735000X0.220500X0.735000X-0.735000X-0.735000X-0.735000X333.000000*%
%ADD18C,0.800000*%
%ADD19C,3.450000*%
%ADD20R,1.700000X1.700000*%
%ADD21O,1.700000X1.700000*%
%ADD22R,0.600000X0.450000*%
%ADD23RoundRect,0.150000X-0.875000X-0.150000X0.875000X-0.150000X0.875000X0.150000X-0.875000X0.150000X0*%
%ADD24RoundRect,0.150000X-0.512500X-0.150000X0.512500X-0.150000X0.512500X0.150000X-0.512500X0.150000X0*%
%ADD25Outline5P,-0.735000X0.735000X0.220500X0.735000X0.735000X0.220500X0.735000X-0.735000X-0.735000X-0.735000X54.000000*%
%ADD26Outline5P,-0.735000X0.735000X0.220500X0.735000X0.735000X0.220500X0.735000X-0.735000X-0.735000X-0.735000X144.000000*%
%ADD27Outline5P,-0.735000X0.735000X0.735000X0.735000X0.735000X-0.220500X0.220500X-0.735000X-0.735000X-0.735000X324.000000*%
%ADD28Outline5P,-0.735000X0.735000X0.220500X0.735000X0.735000X0.220500X0.735000X-0.735000X-0.735000X-0.735000X324.000000*%
%ADD29Outline5P,-0.735000X0.735000X0.220500X0.735000X0.735000X0.220500X0.735000X-0.735000X-0.735000X-0.735000X270.000000*%
%ADD30Outline5P,-0.735000X0.735000X0.220500X0.735000X0.735000X0.220500X0.735000X-0.735000X-0.735000X-0.735000X180.000000*%
%ADD31Outline5P,-0.735000X0.735000X0.220500X0.735000X0.735000X0.220500X0.735000X-0.735000X-0.735000X-0.735000X90.000000*%
%ADD32Outline5P,-0.735000X0.735000X0.735000X0.735000X0.735000X-0.220500X0.220500X-0.735000X-0.735000X-0.735000X90.000000*%
%ADD33Outline5P,-0.735000X0.735000X0.220500X0.735000X0.735000X0.220500X0.735000X-0.735000X-0.735000X-0.735000X288.000000*%
%ADD34Outline5P,-0.735000X0.735000X0.220500X0.735000X0.735000X0.220500X0.735000X-0.735000X-0.735000X-0.735000X18.000000*%
%ADD35Outline5P,-0.735000X0.735000X0.735000X0.735000X0.735000X-0.220500X0.220500X-0.735000X-0.735000X-0.735000X198.000000*%
%ADD36Outline5P,-0.735000X0.735000X0.220500X0.735000X0.735000X0.220500X0.735000X-0.735000X-0.735000X-0.735000X198.000000*%
%ADD37Outline5P,-0.735000X0.735000X0.220500X0.735000X0.735000X0.220500X0.735000X-0.735000X-0.735000X-0.735000X27.000000*%
%ADD38Outline5P,-0.735000X0.735000X0.220500X0.735000X0.735000X0.220500X0.735000X-0.735000X-0.735000X-0.735000X117.000000*%
%ADD39Outline5P,-0.735000X0.735000X0.735000X0.735000X0.735000X-0.220500X0.220500X-0.735000X-0.735000X-0.735000X297.000000*%
%ADD40Outline5P,-0.735000X0.735000X0.220500X0.735000X0.735000X0.220500X0.735000X-0.735000X-0.735000X-0.735000X297.000000*%
%ADD41Outline5P,-0.735000X0.735000X0.220500X0.735000X0.735000X0.220500X0.735000X-0.735000X-0.735000X-0.735000X234.000000*%
%ADD42Outline5P,-0.735000X0.735000X0.735000X0.735000X0.735000X-0.220500X0.220500X-0.735000X-0.735000X-0.735000X234.000000*%
%ADD43Outline5P,-0.735000X0.735000X0.220500X0.735000X0.735000X0.220500X0.735000X-0.735000X-0.735000X-0.735000X9.000000*%
%ADD44Outline5P,-0.735000X0.735000X0.220500X0.735000X0.735000X0.220500X0.735000X-0.735000X-0.735000X-0.735000X279.000000*%
%ADD45Outline5P,-0.735000X0.735000X0.735000X0.735000X0.735000X-0.220500X0.220500X-0.735000X-0.735000X-0.735000X189.000000*%
%ADD46Outline5P,-0.735000X0.735000X0.220500X0.735000X0.735000X0.220500X0.735000X-0.735000X-0.735000X-0.735000X189.000000*%
%ADD47Outline5P,-0.735000X0.735000X0.220500X0.735000X0.735000X0.220500X0.735000X-0.735000X-0.735000X-0.735000X315.000000*%
%ADD48Outline5P,-0.735000X0.735000X0.220500X0.735000X0.735000X0.220500X0.735000X-0.735000X-0.735000X-0.735000X45.000000*%
%ADD49Outline5P,-0.735000X0.735000X0.220500X0.735000X0.735000X0.220500X0.735000X-0.735000X-0.735000X-0.735000X225.000000*%
%ADD50Outline5P,-0.735000X0.735000X0.735000X0.735000X0.735000X-0.220500X0.220500X-0.735000X-0.735000X-0.735000X225.000000*%
%ADD51Outline5P,-0.735000X0.735000X0.220500X0.735000X0.735000X0.220500X0.735000X-0.735000X-0.735000X-0.735000X243.000000*%
%ADD52Outline5P,-0.735000X0.735000X0.735000X0.735000X0.735000X-0.220500X0.220500X-0.735000X-0.735000X-0.735000X243.000000*%
%ADD53Outline5P,-0.735000X0.735000X0.220500X0.735000X0.735000X0.220500X0.735000X-0.735000X-0.735000X-0.735000X351.000000*%
%ADD54Outline5P,-0.735000X0.735000X0.220500X0.735000X0.735000X0.220500X0.735000X-0.735000X-0.735000X-0.735000X261.000000*%
%ADD55Outline5P,-0.735000X0.735000X0.735000X0.735000X0.735000X-0.220500X0.220500X-0.735000X-0.735000X-0.735000X171.000000*%
%ADD56Outline5P,-0.735000X0.735000X0.220500X0.735000X0.735000X0.220500X0.735000X-0.735000X-0.735000X-0.735000X171.000000*%
%ADD57RoundRect,0.225000X-0.250000X0.225000X-0.250000X-0.225000X0.250000X-0.225000X0.250000X0.225000X0*%
%ADD58RotRect,0.500000X3.250000X135.000000*%
%ADD59RotRect,1.300000X3.250000X135.000000*%
%ADD60Outline5P,-0.735000X0.735000X0.220500X0.735000X0.735000X0.220500X0.735000X-0.735000X-0.735000X-0.735000X0.000000*%
%ADD61Outline5P,-0.735000X0.735000X0.735000X0.735000X0.735000X-0.220500X0.220500X-0.735000X-0.735000X-0.735000X180.000000*%
%ADD62RoundRect,0.200000X-0.275000X0.200000X-0.275000X-0.200000X0.275000X-0.200000X0.275000X0.200000X0*%
%ADD63RoundRect,0.200000X-0.200000X-0.275000X0.200000X-0.275000X0.200000X0.275000X-0.200000X0.275000X0*%
%ADD64RoundRect,0.050000X0.050000X-0.362500X0.050000X0.362500X-0.050000X0.362500X-0.050000X-0.362500X0*%
%ADD65RoundRect,0.050000X0.362500X-0.050000X0.362500X0.050000X-0.362500X0.050000X-0.362500X-0.050000X0*%
%ADD66R,2.350000X2.350000*%
%ADD67Outline5P,-0.735000X0.735000X0.220500X0.735000X0.735000X0.220500X0.735000X-0.735000X-0.735000X-0.735000X99.000000*%
%ADD68Outline5P,-0.735000X0.735000X0.735000X0.735000X0.735000X-0.220500X0.220500X-0.735000X-0.735000X-0.735000X9.000000*%
%ADD69Outline5P,-0.735000X0.735000X0.220500X0.735000X0.735000X0.220500X0.735000X-0.735000X-0.735000X-0.735000X216.000000*%
%ADD70Outline5P,-0.735000X0.735000X0.220500X0.735000X0.735000X0.220500X0.735000X-0.735000X-0.735000X-0.735000X126.000000*%
%ADD71Outline5P,-0.735000X0.735000X0.735000X0.735000X0.735000X-0.220500X0.220500X-0.735000X-0.735000X-0.735000X36.000000*%
%ADD72Outline5P,-0.735000X0.735000X0.220500X0.735000X0.735000X0.220500X0.735000X-0.735000X-0.735000X-0.735000X36.000000*%
%ADD73Outline5P,-0.735000X0.735000X0.220500X0.735000X0.735000X0.220500X0.735000X-0.735000X-0.735000X-0.735000X108.000000*%
%ADD74Outline5P,-0.735000X0.735000X0.735000X0.735000X0.735000X-0.220500X0.220500X-0.735000X-0.735000X-0.735000X108.000000*%
%ADD75RotRect,0.500000X3.300000X144.000000*%
%ADD76RotRect,1.300000X3.300000X144.000000*%
%ADD77Outline5P,-0.735000X0.735000X0.735000X0.735000X0.735000X-0.220500X0.220500X-0.735000X-0.735000X-0.735000X270.000000*%
%ADD78Outline5P,-0.735000X0.735000X0.735000X0.735000X0.735000X-0.220500X0.220500X-0.735000X-0.735000X-0.735000X18.000000*%
%ADD79C,1.750000*%
%ADD80Outline5P,-0.735000X0.735000X0.735000X0.735000X0.735000X-0.220500X0.220500X-0.735000X-0.735000X-0.735000X153.000000*%
%ADD81RoundRect,0.237500X0.287500X0.237500X-0.287500X0.237500X-0.287500X-0.237500X0.287500X-0.237500X0*%
%ADD82Outline5P,-0.735000X0.735000X0.220500X0.735000X0.735000X0.220500X0.735000X-0.735000X-0.735000X-0.735000X81.000000*%
%ADD83Outline5P,-0.735000X0.735000X0.735000X0.735000X0.735000X-0.220500X0.220500X-0.735000X-0.735000X-0.735000X261.000000*%
%ADD84RotRect,0.500000X3.250000X279.000000*%
%ADD85RotRect,1.300000X3.250000X279.000000*%
%ADD86RoundRect,0.100000X-0.637500X-0.100000X0.637500X-0.100000X0.637500X0.100000X-0.637500X0.100000X0*%
%ADD87Outline5P,-0.735000X0.735000X0.735000X0.735000X0.735000X-0.220500X0.220500X-0.735000X-0.735000X-0.735000X81.000000*%
%ADD88RoundRect,0.250000X-0.312500X-1.075000X0.312500X-1.075000X0.312500X1.075000X-0.312500X1.075000X0*%
%ADD89RoundRect,0.250000X-0.325000X-0.650000X0.325000X-0.650000X0.325000X0.650000X-0.325000X0.650000X0*%
%ADD90Outline5P,-0.735000X0.735000X0.220500X0.735000X0.735000X0.220500X0.735000X-0.735000X-0.735000X-0.735000X162.000000*%
%ADD91Outline5P,-0.735000X0.735000X0.220500X0.735000X0.735000X0.220500X0.735000X-0.735000X-0.735000X-0.735000X72.000000*%
%ADD92Outline5P,-0.735000X0.735000X0.735000X0.735000X0.735000X-0.220500X0.220500X-0.735000X-0.735000X-0.735000X342.000000*%
%ADD93Outline5P,-0.735000X0.735000X0.220500X0.735000X0.735000X0.220500X0.735000X-0.735000X-0.735000X-0.735000X342.000000*%
%ADD94RotRect,0.500000X3.300000X216.000000*%
%ADD95RotRect,1.300000X3.300000X216.000000*%
%ADD96Outline5P,-0.735000X0.735000X0.735000X0.735000X0.735000X-0.220500X0.220500X-0.735000X-0.735000X-0.735000X252.000000*%
%ADD97Outline5P,-0.735000X0.735000X0.220500X0.735000X0.735000X0.220500X0.735000X-0.735000X-0.735000X-0.735000X252.000000*%
%ADD98RoundRect,0.250000X0.275000X2.125000X-0.275000X2.125000X-0.275000X-2.125000X0.275000X-2.125000X0*%
%ADD99RoundRect,0.225000X0.225000X0.250000X-0.225000X0.250000X-0.225000X-0.250000X0.225000X-0.250000X0*%
%ADD100RotRect,0.500000X3.250000X63.000000*%
%ADD101RotRect,1.300000X3.250000X63.000000*%
%ADD102R,0.500000X3.300000*%
%ADD103R,1.300000X3.300000*%
%ADD104RotRect,0.500000X3.300000X288.000000*%
%ADD105RotRect,1.300000X3.300000X288.000000*%
%ADD106Outline5P,-0.735000X0.735000X0.220500X0.735000X0.735000X0.220500X0.735000X-0.735000X-0.735000X-0.735000X207.000000*%
%ADD107Outline5P,-0.735000X0.735000X0.735000X0.735000X0.735000X-0.220500X0.220500X-0.735000X-0.735000X-0.735000X27.000000*%
%ADD108Outline5P,-0.735000X0.735000X0.220500X0.735000X0.735000X0.220500X0.735000X-0.735000X-0.735000X-0.735000X135.000000*%
%ADD109Outline5P,-0.735000X0.735000X0.735000X0.735000X0.735000X-0.220500X0.220500X-0.735000X-0.735000X-0.735000X45.000000*%
%ADD110Outline5P,-0.735000X0.735000X0.735000X0.735000X0.735000X-0.220500X0.220500X-0.735000X-0.735000X-0.735000X117.000000*%
%ADD111FreePoly0,0.000000*%
%ADD112FreePoly1,0.000000*%
%ADD113Outline5P,-0.735000X0.735000X0.735000X0.735000X0.735000X-0.220500X0.220500X-0.735000X-0.735000X-0.735000X54.000000*%
%ADD114Outline5P,-0.735000X0.735000X0.735000X0.735000X0.735000X-0.220500X0.220500X-0.735000X-0.735000X-0.735000X162.000000*%
%ADD115RoundRect,0.200000X0.200000X0.275000X-0.200000X0.275000X-0.200000X-0.275000X0.200000X-0.275000X0*%
%ADD116RotRect,0.500000X3.300000X72.000000*%
%ADD117RotRect,1.300000X3.300000X72.000000*%
%ADD118RotRect,0.500000X3.250000X351.000000*%
%ADD119RotRect,1.300000X3.250000X351.000000*%
%ADD120Outline5P,-0.735000X0.735000X0.220500X0.735000X0.735000X0.220500X0.735000X-0.735000X-0.735000X-0.735000X306.000000*%
%ADD121Outline5P,-0.735000X0.735000X0.735000X0.735000X0.735000X-0.220500X0.220500X-0.735000X-0.735000X-0.735000X126.000000*%
%ADD122Outline5P,-0.735000X0.735000X0.735000X0.735000X0.735000X-0.220500X0.220500X-0.735000X-0.735000X-0.735000X315.000000*%
%ADD123Outline5P,-0.735000X0.735000X0.735000X0.735000X0.735000X-0.220500X0.220500X-0.735000X-0.735000X-0.735000X99.000000*%
%ADD124Outline5P,-0.735000X0.735000X0.735000X0.735000X0.735000X-0.220500X0.220500X-0.735000X-0.735000X-0.735000X306.000000*%
%ADD125RotRect,0.500000X3.250000X207.000000*%
%ADD126RotRect,1.300000X3.250000X207.000000*%
%ADD127C,2.000000*%
%ADD128R,0.700000X0.350000*%
%ADD129RotRect,1.700000X1.700000X135.000000*%
%ADD130HorizOval,1.700000X0.000000X0.000000X0.000000X0.000000X0*%
%ADD131R,0.990000X0.405000*%
%ADD132FreePoly2,0.000000*%
G04 APERTURE END LIST*
D10*
%TO.C,C17*%
X199500000Y-28900000D03*
X201050000Y-28900000D03*
%TD*%
D11*
%TO.C,C37*%
X256950000Y-111875001D03*
X256950000Y-110325001D03*
%TD*%
D12*
%TO.C,R17*%
X227275000Y-136425000D03*
X230225000Y-136425000D03*
%TD*%
D10*
%TO.C,C16*%
X199450000Y-30550000D03*
X201000000Y-30550000D03*
%TD*%
D13*
%TO.C,H7*%
X105200000Y-138600000D03*
%TD*%
D14*
%TO.C,D45*%
X109589994Y-33225968D03*
D15*
X107774032Y-36789994D03*
D16*
X106025968Y-31410006D03*
D17*
X104210006Y-34974032D03*
D18*
X106900000Y-34100000D03*
D19*
X106900000Y-34100000D03*
%TD*%
D20*
%TO.C,J4*%
X22100000Y-94425000D03*
D21*
X22100000Y-91885000D03*
X22100000Y-89345000D03*
X22100000Y-86805000D03*
X22100000Y-84265000D03*
X22100000Y-81725000D03*
X22100000Y-79185000D03*
X22100000Y-76645000D03*
X22100000Y-74105000D03*
X22100000Y-71565000D03*
%TD*%
D20*
%TO.C,J8*%
X156550000Y-94200000D03*
D21*
X156550000Y-91660000D03*
X156550000Y-89120000D03*
X156550000Y-86580000D03*
X156550000Y-84040000D03*
X156550000Y-81500000D03*
X156550000Y-78960000D03*
X156550000Y-76420000D03*
X156550000Y-73880000D03*
X156550000Y-71340000D03*
%TD*%
D22*
%TO.C,D82*%
X196425000Y-40650000D03*
X198525000Y-40650000D03*
%TD*%
D23*
%TO.C,U22*%
X224500000Y-27330000D03*
X224500000Y-28600000D03*
X224500000Y-29870000D03*
X224500000Y-31140000D03*
X224500000Y-32410000D03*
X224500000Y-33680000D03*
X224500000Y-34950000D03*
X224500000Y-36220000D03*
X233800000Y-36220000D03*
X233800000Y-34950000D03*
X233800000Y-33680000D03*
X233800000Y-32410000D03*
X233800000Y-31140000D03*
X233800000Y-29870000D03*
X233800000Y-28600000D03*
X233800000Y-27330000D03*
%TD*%
D24*
%TO.C,U3*%
X260492500Y-97255000D03*
X260492500Y-98205000D03*
X260492500Y-99155000D03*
X262767500Y-99155000D03*
X262767500Y-97255000D03*
%TD*%
D25*
%TO.C,D5*%
X110666117Y-46921593D03*
D26*
X113017258Y-43685526D03*
D27*
X109781191Y-41334385D03*
D28*
X107430050Y-44570452D03*
D19*
X110223654Y-44127989D03*
D18*
X110223654Y-44127989D03*
%TD*%
D29*
%TO.C,D72*%
X25500000Y-80900000D03*
D30*
X29500000Y-80900000D03*
D31*
X29500000Y-84900000D03*
D32*
X25500000Y-84900000D03*
D19*
X27500000Y-82900000D03*
D18*
X27500000Y-82900000D03*
%TD*%
D10*
%TO.C,C33*%
X215475002Y-132049999D03*
X217025002Y-132049999D03*
%TD*%
D33*
%TO.C,D60*%
X96479853Y-133415921D03*
D34*
X97715921Y-137220147D03*
D35*
X101520147Y-135984079D03*
D36*
X100284079Y-132179853D03*
D18*
X99000000Y-134700000D03*
D19*
X99000000Y-134700000D03*
%TD*%
D37*
%TO.C,D49*%
X130025968Y-60689994D03*
D38*
X133589994Y-58874032D03*
D39*
X131774032Y-55310006D03*
D40*
X128210006Y-57125968D03*
D18*
X130900000Y-58000000D03*
D19*
X130900000Y-58000000D03*
%TD*%
D28*
%TO.C,D15*%
X117971050Y-111245452D03*
D25*
X121207117Y-113596593D03*
D41*
X120322191Y-108009385D03*
D42*
X123558258Y-110360526D03*
D19*
X120764654Y-110802989D03*
D18*
X120764654Y-110802989D03*
%TD*%
D43*
%TO.C,D20*%
X87860146Y-132395235D03*
D44*
X87234408Y-128444481D03*
D45*
X91810900Y-131769497D03*
D46*
X91185162Y-127818743D03*
D18*
X89522654Y-130106989D03*
D19*
X89522654Y-130106989D03*
%TD*%
D47*
%TO.C,D16*%
X113110227Y-116644989D03*
D48*
X115938654Y-119473416D03*
D49*
X115938654Y-113816562D03*
D50*
X118767081Y-116644989D03*
D18*
X115938654Y-116644989D03*
D19*
X115938654Y-116644989D03*
%TD*%
D15*
%TO.C,D14*%
X125575686Y-107142983D03*
D17*
X122011660Y-105327021D03*
D51*
X123827622Y-101762995D03*
D52*
X127391648Y-103578957D03*
D19*
X124701654Y-104452989D03*
D18*
X124701654Y-104452989D03*
%TD*%
D13*
%TO.C,H11*%
X272450000Y-105675000D03*
%TD*%
D24*
%TO.C,U1*%
X245262500Y-131650000D03*
X245262500Y-132600000D03*
X245262500Y-133550000D03*
X247537500Y-133550000D03*
X247537500Y-131650000D03*
%TD*%
D13*
%TO.C,H6*%
X137850000Y-105925000D03*
%TD*%
D43*
%TO.C,D61*%
X89037492Y-139088246D03*
D44*
X88411754Y-135137492D03*
D46*
X92362508Y-134511754D03*
D45*
X92988246Y-138462508D03*
D19*
X90700000Y-136800000D03*
D18*
X90700000Y-136800000D03*
%TD*%
D53*
%TO.C,D63*%
X71311754Y-138462508D03*
D54*
X71937492Y-134511754D03*
D55*
X75262508Y-139088246D03*
D56*
X75888246Y-135137492D03*
D18*
X73600000Y-136800000D03*
D19*
X73600000Y-136800000D03*
%TD*%
D11*
%TO.C,C11*%
X274400000Y-78550000D03*
X274400000Y-77000000D03*
%TD*%
D57*
%TO.C,C8*%
X209800000Y-27200000D03*
X209800000Y-28750000D03*
%TD*%
D58*
%TO.C,D67*%
X42727728Y-120327728D03*
X44672272Y-122272272D03*
D59*
X43700000Y-121300000D03*
D18*
X43700000Y-121300000D03*
%TD*%
D60*
%TO.C,D21*%
X80029654Y-132487989D03*
D29*
X80029654Y-128487989D03*
D30*
X84029654Y-128487989D03*
D61*
X84029654Y-132487989D03*
D19*
X82029654Y-130487989D03*
D18*
X82029654Y-130487989D03*
%TD*%
D62*
%TO.C,R8*%
X269325000Y-75375000D03*
X269325000Y-77025000D03*
%TD*%
D63*
%TO.C,R19*%
X239400000Y-38800000D03*
X241050000Y-38800000D03*
%TD*%
D13*
%TO.C,H9*%
X239800000Y-26875000D03*
%TD*%
D11*
%TO.C,C9*%
X256755000Y-119255001D03*
X256755000Y-117705001D03*
%TD*%
D64*
%TO.C,U9*%
X268100000Y-84312500D03*
X268500000Y-84312500D03*
X268900000Y-84312500D03*
X269300000Y-84312500D03*
X269700000Y-84312500D03*
X270100000Y-84312500D03*
X270500000Y-84312500D03*
D65*
X271237500Y-83575000D03*
X271237500Y-83175000D03*
X271237500Y-82775000D03*
X271237500Y-82375000D03*
X271237500Y-81975000D03*
X271237500Y-81575000D03*
X271237500Y-81175000D03*
D64*
X270500000Y-80437500D03*
X270100000Y-80437500D03*
X269700000Y-80437500D03*
X269300000Y-80437500D03*
X268900000Y-80437500D03*
X268500000Y-80437500D03*
X268100000Y-80437500D03*
D65*
X267362500Y-81175000D03*
X267362500Y-81575000D03*
X267362500Y-81975000D03*
X267362500Y-82375000D03*
X267362500Y-82775000D03*
X267362500Y-83175000D03*
X267362500Y-83575000D03*
D66*
X269300000Y-82375000D03*
%TD*%
D53*
%TO.C,D22*%
X72375408Y-131769497D03*
D54*
X73001146Y-127818743D03*
D55*
X76326162Y-132395235D03*
D56*
X76951900Y-128444481D03*
D18*
X74663654Y-130106989D03*
D19*
X74663654Y-130106989D03*
%TD*%
D46*
%TO.C,D81*%
X75262508Y-26511754D03*
D67*
X75888246Y-30462508D03*
D43*
X71937492Y-31088246D03*
D68*
X71311754Y-27137492D03*
D18*
X73600000Y-28800000D03*
D19*
X73600000Y-28800000D03*
%TD*%
D69*
%TO.C,D38*%
X54442463Y-41306396D03*
D70*
X56793604Y-44542463D03*
D71*
X51206396Y-43657537D03*
D72*
X53557537Y-46893604D03*
D19*
X54000000Y-44100000D03*
D18*
X54000000Y-44100000D03*
%TD*%
D33*
%TO.C,D19*%
X94368507Y-127044910D03*
D34*
X95604575Y-130849136D03*
D35*
X99408801Y-129613068D03*
D36*
X98172733Y-125808842D03*
D18*
X96888654Y-128328989D03*
D19*
X96888654Y-128328989D03*
%TD*%
D13*
%TO.C,H13*%
X161000000Y-105675000D03*
%TD*%
D33*
%TO.C,D29*%
X34297507Y-96310910D03*
D36*
X38101733Y-95074842D03*
D73*
X39337801Y-98879068D03*
D74*
X35533575Y-100115136D03*
D19*
X36817654Y-97594989D03*
D18*
X36817654Y-97594989D03*
%TD*%
D24*
%TO.C,U8*%
X260275000Y-111905000D03*
X260275000Y-112855000D03*
X260275000Y-113805000D03*
X262550000Y-113805000D03*
X262550000Y-111905000D03*
%TD*%
D11*
%TO.C,C10*%
X264412500Y-112605001D03*
X264412500Y-111055001D03*
%TD*%
D75*
%TO.C,D25*%
X53084030Y-120521090D03*
X55349278Y-122166888D03*
D18*
X54251574Y-121338458D03*
D76*
X54216654Y-121343989D03*
%TD*%
D31*
%TO.C,D11*%
X131908654Y-84862989D03*
D60*
X127908654Y-84862989D03*
D77*
X131908654Y-80862989D03*
D29*
X127908654Y-80862989D03*
D18*
X129908654Y-82862989D03*
D19*
X129908654Y-82862989D03*
%TD*%
D36*
%TO.C,D40*%
X68684079Y-34879853D03*
D73*
X69920147Y-38684079D03*
D78*
X64879853Y-36115921D03*
D34*
X66115921Y-39920147D03*
D19*
X67400000Y-37400000D03*
D18*
X67400000Y-37400000D03*
%TD*%
D67*
%TO.C,D41*%
X76925738Y-37350754D03*
D46*
X76300000Y-33400000D03*
D43*
X72974984Y-37976492D03*
D68*
X72349246Y-34025738D03*
D19*
X74637492Y-35688246D03*
D18*
X74637492Y-35688246D03*
%TD*%
D10*
%TO.C,C29*%
X215500002Y-136824999D03*
X217050002Y-136824999D03*
%TD*%
D11*
%TO.C,C5*%
X264437500Y-119850001D03*
X264437500Y-118300001D03*
%TD*%
D62*
%TO.C,R9*%
X273925000Y-83400000D03*
X273925000Y-85050000D03*
%TD*%
D79*
%TO.C,U13*%
X160820000Y-90195000D03*
X163360000Y-90195000D03*
X165900000Y-90195000D03*
X168440000Y-90195000D03*
X170980000Y-90195000D03*
%TD*%
%TO.C,U12*%
X206727245Y-137811077D03*
X207512148Y-135395394D03*
X208297051Y-132979710D03*
X209081954Y-130564026D03*
X209866857Y-128148343D03*
%TD*%
D51*
%TO.C,D65*%
X56425968Y-128810006D03*
D17*
X54610006Y-132374032D03*
D14*
X59989994Y-130625968D03*
D80*
X58174032Y-134189994D03*
D19*
X57300000Y-131500000D03*
D18*
X57300000Y-131500000D03*
%TD*%
D81*
%TO.C,D84*%
X162600000Y-68775000D03*
X160850000Y-68775000D03*
%TD*%
D11*
%TO.C,C12*%
X271250000Y-77025000D03*
X271250000Y-75475000D03*
%TD*%
D24*
%TO.C,U21*%
X252812500Y-111175000D03*
X252812500Y-112125000D03*
X252812500Y-113075000D03*
X255087500Y-113075000D03*
X255087500Y-111175000D03*
%TD*%
D53*
%TO.C,D12*%
X126985408Y-91891497D03*
D82*
X130936162Y-92517235D03*
D83*
X131561900Y-88566481D03*
D54*
X127611146Y-87940743D03*
D19*
X129273654Y-90228989D03*
D18*
X129273654Y-90228989D03*
%TD*%
D84*
%TO.C,D10*%
X129234751Y-76601060D03*
X128804557Y-73884918D03*
D18*
X129019654Y-75242989D03*
D85*
X129019654Y-75242989D03*
%TD*%
D15*
%TO.C,D4*%
X104747686Y-42880983D03*
D14*
X106563648Y-39316957D03*
D16*
X102999622Y-37500995D03*
D17*
X101183660Y-41065021D03*
D19*
X103873654Y-40190989D03*
D18*
X103873654Y-40190989D03*
%TD*%
D11*
%TO.C,C1*%
X249400000Y-132350000D03*
X249400000Y-130800000D03*
%TD*%
%TO.C,C2*%
X264480000Y-105255001D03*
X264480000Y-103705001D03*
%TD*%
D86*
%TO.C,U10*%
X191712500Y-31175000D03*
X191712500Y-31825000D03*
X191712500Y-32475000D03*
X191712500Y-33125000D03*
X191712500Y-33775000D03*
X191712500Y-34425000D03*
X191712500Y-35075000D03*
X191712500Y-35725000D03*
X197437500Y-35725000D03*
X197437500Y-35075000D03*
X197437500Y-34425000D03*
X197437500Y-33775000D03*
X197437500Y-33125000D03*
X197437500Y-32475000D03*
X197437500Y-31825000D03*
X197437500Y-31175000D03*
%TD*%
D54*
%TO.C,D32*%
X33250146Y-73081743D03*
D56*
X37200900Y-73707481D03*
D87*
X32624408Y-77032497D03*
D82*
X36575162Y-77658235D03*
D19*
X34912654Y-75369989D03*
D18*
X34912654Y-75369989D03*
%TD*%
D88*
%TO.C,F1*%
X191237500Y-38950000D03*
X194162500Y-38950000D03*
%TD*%
D89*
%TO.C,C28*%
X215575002Y-129724999D03*
X218525002Y-129724999D03*
%TD*%
D90*
%TO.C,D3*%
X99408801Y-36112910D03*
D91*
X98172733Y-39917136D03*
D92*
X95604575Y-34876842D03*
D93*
X94368507Y-38681068D03*
D18*
X96888654Y-37396989D03*
D19*
X96888654Y-37396989D03*
%TD*%
D94*
%TO.C,D17*%
X109091030Y-122039888D03*
X111356278Y-120394090D03*
D18*
X110229185Y-121182069D03*
D95*
X110223654Y-121216989D03*
%TD*%
D91*
%TO.C,D13*%
X128779733Y-100115136D03*
D93*
X124975507Y-98879068D03*
D96*
X130015801Y-96310910D03*
D97*
X126211575Y-95074842D03*
D18*
X127495654Y-97594989D03*
D19*
X127495654Y-97594989D03*
%TD*%
D13*
%TO.C,H5*%
X26375000Y-105950000D03*
%TD*%
D36*
%TO.C,D70*%
X31484079Y-97179853D03*
D33*
X27679853Y-98415921D03*
D73*
X32720147Y-100984079D03*
D74*
X28915921Y-102220147D03*
D18*
X30200000Y-99700000D03*
D19*
X30200000Y-99700000D03*
%TD*%
D11*
%TO.C,C4*%
X256655000Y-127105001D03*
X256655000Y-125555001D03*
%TD*%
D98*
%TO.C,R15*%
X224900000Y-136525000D03*
X221950000Y-136525000D03*
%TD*%
D10*
%TO.C,C35*%
X237000000Y-131425000D03*
X238550000Y-131425000D03*
%TD*%
D99*
%TO.C,C13*%
X269535000Y-87284999D03*
X267985000Y-87284999D03*
%TD*%
D100*
%TO.C,D75*%
X33824237Y-56674866D03*
X32575763Y-59125134D03*
D101*
X33200000Y-57900000D03*
D18*
X33200000Y-57900000D03*
%TD*%
D102*
%TO.C,D42*%
X83400000Y-28100000D03*
X80600000Y-28100000D03*
D18*
X81975000Y-28125000D03*
D103*
X82000000Y-28100000D03*
%TD*%
D13*
%TO.C,H8*%
X137850000Y-59775000D03*
%TD*%
%TO.C,H1*%
X59025000Y-27125000D03*
%TD*%
D60*
%TO.C,D62*%
X80000000Y-139500000D03*
D29*
X80000000Y-135500000D03*
D30*
X84000000Y-135500000D03*
D61*
X84000000Y-139500000D03*
D18*
X82000000Y-137500000D03*
D19*
X82000000Y-137500000D03*
%TD*%
D54*
%TO.C,D73*%
X26537492Y-72011754D03*
D56*
X30488246Y-72637492D03*
D82*
X29862508Y-76588246D03*
D87*
X25911754Y-75962508D03*
D19*
X28200000Y-74300000D03*
D18*
X28200000Y-74300000D03*
%TD*%
D24*
%TO.C,U4*%
X252517500Y-126405000D03*
X252517500Y-127355000D03*
X252517500Y-128305000D03*
X254792500Y-128305000D03*
X254792500Y-126405000D03*
%TD*%
D98*
%TO.C,R16*%
X224900000Y-130700000D03*
X221950000Y-130700000D03*
%TD*%
D104*
%TO.C,D50*%
X134532624Y-67231479D03*
X133667376Y-64568521D03*
D18*
X134068498Y-65883949D03*
D105*
X134100000Y-65900000D03*
%TD*%
D106*
%TO.C,D79*%
X58274032Y-31310006D03*
D38*
X60089994Y-34874032D03*
D37*
X56525968Y-36689994D03*
D107*
X54710006Y-33125968D03*
D18*
X57400000Y-34000000D03*
D19*
X57400000Y-34000000D03*
%TD*%
D49*
%TO.C,D77*%
X43500000Y-41371573D03*
D108*
X46328427Y-44200000D03*
D48*
X43500000Y-47028427D03*
D109*
X40671573Y-44200000D03*
D19*
X43500000Y-44200000D03*
D18*
X43500000Y-44200000D03*
%TD*%
D106*
%TO.C,D69*%
X34374032Y-105010006D03*
D40*
X30810006Y-106825968D03*
D110*
X32625968Y-110389994D03*
D38*
X36189994Y-108574032D03*
D18*
X33500000Y-107700000D03*
D19*
X33500000Y-107700000D03*
%TD*%
D51*
%TO.C,D24*%
X59565622Y-122590995D03*
D17*
X57749660Y-126155021D03*
D14*
X63129648Y-124406957D03*
D80*
X61313686Y-127970983D03*
D19*
X60439654Y-125280989D03*
D18*
X60439654Y-125280989D03*
%TD*%
D111*
%TO.C,JP2*%
X237300000Y-129150000D03*
D112*
X238600000Y-129150000D03*
%TD*%
D41*
%TO.C,D36*%
X43057537Y-52006396D03*
D26*
X46293604Y-54357537D03*
D113*
X40706396Y-55242463D03*
D25*
X43942463Y-57593604D03*
D19*
X43500000Y-54800000D03*
D18*
X43500000Y-54800000D03*
%TD*%
D20*
%TO.C,J5*%
X205225000Y-22275000D03*
D21*
X207765000Y-22275000D03*
X210305000Y-22275000D03*
X212845000Y-22275000D03*
X215385000Y-22275000D03*
X217925000Y-22275000D03*
X220465000Y-22275000D03*
X223005000Y-22275000D03*
X225545000Y-22275000D03*
X228085000Y-22275000D03*
%TD*%
D36*
%TO.C,D80*%
X66684079Y-28279853D03*
D73*
X67920147Y-32084079D03*
D34*
X64115921Y-33320147D03*
D78*
X62879853Y-29515921D03*
D18*
X65400000Y-30800000D03*
D19*
X65400000Y-30800000D03*
%TD*%
D13*
%TO.C,H15*%
X193650000Y-138325000D03*
%TD*%
D108*
%TO.C,D37*%
X51228427Y-49000000D03*
D49*
X48400000Y-46171573D03*
D109*
X45571573Y-49000000D03*
D48*
X48400000Y-51828427D03*
D19*
X48400000Y-49000000D03*
D18*
X48400000Y-49000000D03*
%TD*%
D20*
%TO.C,J2*%
X142500000Y-71575000D03*
D21*
X142500000Y-74115000D03*
X142500000Y-76655000D03*
X142500000Y-79195000D03*
X142500000Y-81735000D03*
X142500000Y-84275000D03*
X142500000Y-86815000D03*
X142500000Y-89355000D03*
X142500000Y-91895000D03*
X142500000Y-94435000D03*
%TD*%
D79*
%TO.C,U15*%
X184082898Y-130042102D03*
X185878949Y-128246051D03*
X187675000Y-126450000D03*
X189471051Y-124653949D03*
X191267102Y-122857898D03*
%TD*%
D13*
%TO.C,H12*%
X193625000Y-26850000D03*
%TD*%
D40*
%TO.C,D28*%
X36794660Y-103705957D03*
D106*
X40358686Y-101889995D03*
D38*
X42174648Y-105454021D03*
D110*
X38610622Y-107269983D03*
D18*
X39484654Y-104579989D03*
D19*
X39484654Y-104579989D03*
%TD*%
D79*
%TO.C,U11*%
X168457898Y-47582898D03*
X170253949Y-49378949D03*
X172050000Y-51175000D03*
X173846051Y-52971051D03*
X175642102Y-54767102D03*
%TD*%
D20*
%TO.C,J6*%
X276950000Y-71055000D03*
D21*
X276950000Y-73595000D03*
X276950000Y-76135000D03*
X276950000Y-78675000D03*
X276950000Y-81215000D03*
X276950000Y-83755000D03*
X276950000Y-86295000D03*
X276950000Y-88835000D03*
X276950000Y-91375000D03*
X276950000Y-93915000D03*
%TD*%
D38*
%TO.C,D8*%
X127391648Y-61893021D03*
D37*
X123827622Y-63708983D03*
D40*
X122011660Y-60144957D03*
D39*
X125575686Y-58328995D03*
D19*
X124701654Y-61018989D03*
D18*
X124701654Y-61018989D03*
%TD*%
D24*
%TO.C,U7*%
X252617500Y-118555000D03*
X252617500Y-119505000D03*
X252617500Y-120455000D03*
X254892500Y-120455000D03*
X254892500Y-118555000D03*
%TD*%
%TO.C,U5*%
X260300000Y-119150000D03*
X260300000Y-120100000D03*
X260300000Y-121050000D03*
X262575000Y-121050000D03*
X262575000Y-119150000D03*
%TD*%
D91*
%TO.C,D44*%
X100184079Y-33420147D03*
D90*
X101420147Y-29615921D03*
D93*
X96379853Y-32184079D03*
D92*
X97615921Y-28379853D03*
D19*
X98900000Y-30900000D03*
D18*
X98900000Y-30900000D03*
%TD*%
D97*
%TO.C,D64*%
X63915921Y-132179853D03*
D93*
X62679853Y-135984079D03*
D90*
X67720147Y-133415921D03*
D114*
X66484079Y-137220147D03*
D19*
X65200000Y-134700000D03*
D18*
X65200000Y-134700000D03*
%TD*%
D115*
%TO.C,R11*%
X166275000Y-68775000D03*
X164625000Y-68775000D03*
%TD*%
D11*
%TO.C,C7*%
X215900000Y-28750000D03*
X215900000Y-27200000D03*
%TD*%
D24*
%TO.C,U2*%
X260342500Y-104555000D03*
X260342500Y-105505000D03*
X260342500Y-106455000D03*
X262617500Y-106455000D03*
X262617500Y-104555000D03*
%TD*%
D116*
%TO.C,D33*%
X37032624Y-66799510D03*
X36167376Y-69462468D03*
D18*
X36616051Y-68162491D03*
D117*
X36600000Y-68130989D03*
%TD*%
D118*
%TO.C,D43*%
X91858071Y-28915097D03*
X89141929Y-28484903D03*
D119*
X90500000Y-28700000D03*
D18*
X90500000Y-28700000D03*
%TD*%
D102*
%TO.C,D1*%
X83429654Y-34983989D03*
X80629654Y-34983989D03*
D18*
X82004654Y-35008989D03*
D103*
X82029654Y-34983989D03*
%TD*%
D91*
%TO.C,D54*%
X135384079Y-102220147D03*
D93*
X131579853Y-100984079D03*
D97*
X132815921Y-97179853D03*
D96*
X136620147Y-98415921D03*
D19*
X134100000Y-99700000D03*
D18*
X134100000Y-99700000D03*
%TD*%
D13*
%TO.C,H14*%
X161000000Y-59500000D03*
%TD*%
D20*
%TO.C,J11*%
X264350000Y-73595000D03*
D21*
X264350000Y-76135000D03*
X264350000Y-78675000D03*
X264350000Y-81215000D03*
X264350000Y-83755000D03*
X264350000Y-86295000D03*
X264350000Y-88835000D03*
X264350000Y-91375000D03*
%TD*%
D69*
%TO.C,D27*%
X43991117Y-108136385D03*
D120*
X40755050Y-110487526D03*
D121*
X43106191Y-113723593D03*
D70*
X46342258Y-111372452D03*
D19*
X43548654Y-110929989D03*
D18*
X43548654Y-110929989D03*
%TD*%
D10*
%TO.C,C38*%
X219375000Y-28575000D03*
X220925000Y-28575000D03*
%TD*%
%TO.C,C6*%
X212200000Y-26375000D03*
X213750000Y-26375000D03*
%TD*%
D13*
%TO.C,H2*%
X105200000Y-27100000D03*
%TD*%
D48*
%TO.C,D6*%
X115938654Y-51782416D03*
D108*
X118767081Y-48953989D03*
D122*
X115938654Y-46125562D03*
D47*
X113110227Y-48953989D03*
D18*
X115938654Y-48953989D03*
D19*
X115938654Y-48953989D03*
%TD*%
D69*
%TO.C,D78*%
X50448859Y-35863933D03*
D70*
X52800000Y-39100000D03*
D72*
X49563933Y-41451141D03*
D71*
X47212792Y-38215074D03*
D19*
X50006396Y-38657537D03*
D18*
X50006396Y-38657537D03*
%TD*%
D46*
%TO.C,D71*%
X29962508Y-89111754D03*
D44*
X26011754Y-89737492D03*
D67*
X30588246Y-93062508D03*
D123*
X26637492Y-93688246D03*
D18*
X28300000Y-91400000D03*
D19*
X28300000Y-91400000D03*
%TD*%
D72*
%TO.C,D48*%
X125957537Y-53393604D03*
D70*
X129193604Y-51042463D03*
D120*
X123606396Y-50157537D03*
D124*
X126842463Y-47806396D03*
D19*
X126400000Y-50600000D03*
D18*
X126400000Y-50600000D03*
%TD*%
D63*
%TO.C,R18*%
X239350000Y-40500000D03*
X241000000Y-40500000D03*
%TD*%
D15*
%TO.C,D55*%
X131674032Y-110289994D03*
D17*
X128110006Y-108474032D03*
D51*
X129925968Y-104910006D03*
D52*
X133489994Y-106725968D03*
D18*
X130800000Y-107600000D03*
D19*
X130800000Y-107600000D03*
%TD*%
D11*
%TO.C,C3*%
X264630000Y-97955001D03*
X264630000Y-96405001D03*
%TD*%
D97*
%TO.C,D23*%
X66013575Y-125681842D03*
D93*
X64777507Y-129486068D03*
D90*
X69817801Y-126917910D03*
D114*
X68581733Y-130722136D03*
D19*
X67297654Y-128201989D03*
D18*
X67297654Y-128201989D03*
%TD*%
D118*
%TO.C,D2*%
X90880725Y-35961086D03*
X88164583Y-35530892D03*
D119*
X89522654Y-35745989D03*
D18*
X89522654Y-35745989D03*
%TD*%
D22*
%TO.C,D34*%
X196400000Y-38300000D03*
X198500000Y-38300000D03*
%TD*%
D10*
%TO.C,C36*%
X237050000Y-133225000D03*
X238600000Y-133225000D03*
%TD*%
D13*
%TO.C,H4*%
X26375000Y-59775000D03*
%TD*%
D20*
%TO.C,J3*%
X93425000Y-143200000D03*
D21*
X90885000Y-143200000D03*
X88345000Y-143200000D03*
X85805000Y-143200000D03*
X83265000Y-143200000D03*
X80725000Y-143200000D03*
X78185000Y-143200000D03*
X75645000Y-143200000D03*
X73105000Y-143200000D03*
X70565000Y-143200000D03*
%TD*%
D20*
%TO.C,J1*%
X70675000Y-22300000D03*
D21*
X73215000Y-22300000D03*
X75755000Y-22300000D03*
X78295000Y-22300000D03*
X80835000Y-22300000D03*
X83375000Y-22300000D03*
X85915000Y-22300000D03*
X88455000Y-22300000D03*
X90995000Y-22300000D03*
X93535000Y-22300000D03*
%TD*%
D69*
%TO.C,D68*%
X38442463Y-112206396D03*
D120*
X35206396Y-114557537D03*
D70*
X40793604Y-115442463D03*
D121*
X37557537Y-117793604D03*
D18*
X38000000Y-115000000D03*
D19*
X38000000Y-115000000D03*
%TD*%
D94*
%TO.C,D58*%
X113334752Y-127845799D03*
X115600000Y-126200001D03*
D18*
X114472907Y-126987980D03*
D95*
X114467376Y-127022900D03*
%TD*%
D13*
%TO.C,H10*%
X272450000Y-59500000D03*
%TD*%
D72*
%TO.C,D7*%
X120322191Y-57589593D03*
D70*
X123558258Y-55238452D03*
D124*
X121207117Y-52002385D03*
D120*
X117971050Y-54353526D03*
D19*
X120764654Y-54795989D03*
D18*
X120764654Y-54795989D03*
%TD*%
D125*
%TO.C,D59*%
X105674866Y-131924237D03*
X108125134Y-130675763D03*
D126*
X106900000Y-131300000D03*
D18*
X106900000Y-131300000D03*
%TD*%
D31*
%TO.C,D52*%
X138700000Y-84800000D03*
D60*
X134700000Y-84800000D03*
D77*
X138700000Y-80800000D03*
D29*
X134700000Y-80800000D03*
D19*
X136700000Y-82800000D03*
D18*
X136700000Y-82800000D03*
%TD*%
D25*
%TO.C,D56*%
X126842463Y-117693604D03*
D28*
X123606396Y-115342463D03*
D41*
X125957537Y-112106396D03*
D42*
X129193604Y-114457537D03*
D18*
X126400000Y-114900000D03*
D19*
X126400000Y-114900000D03*
%TD*%
D127*
%TO.C,U19*%
X265307692Y-44493615D03*
X263511641Y-42697564D03*
X261715590Y-40901513D03*
X259919539Y-39105461D03*
X258123487Y-37309410D03*
X256327436Y-35513359D03*
X254531385Y-33717308D03*
X243755078Y-44493615D03*
X245589187Y-46314186D03*
X247372602Y-48097601D03*
X249150000Y-49875000D03*
X250946052Y-51671051D03*
X252742103Y-53467102D03*
X254538154Y-55263153D03*
%TD*%
D75*
%TO.C,D66*%
X49067376Y-126277101D03*
X51332624Y-127922899D03*
D18*
X50234920Y-127094469D03*
D76*
X50200000Y-127100000D03*
%TD*%
D89*
%TO.C,C34*%
X215625002Y-134449999D03*
X218575002Y-134449999D03*
%TD*%
D41*
%TO.C,D76*%
X37457537Y-48006396D03*
D26*
X40693604Y-50357537D03*
D113*
X35106396Y-51242463D03*
D25*
X38342463Y-53593604D03*
D19*
X37900000Y-50800000D03*
D18*
X37900000Y-50800000D03*
%TD*%
D79*
%TO.C,U14*%
X170108095Y-113620742D03*
X172371251Y-112467606D03*
X174634408Y-111314470D03*
X176897565Y-110161334D03*
X179160721Y-109008198D03*
%TD*%
D44*
%TO.C,D30*%
X32624408Y-88693481D03*
D46*
X36575162Y-88067743D03*
D67*
X37200900Y-92018497D03*
D123*
X33250146Y-92644235D03*
D19*
X34912654Y-90355989D03*
D18*
X34912654Y-90355989D03*
%TD*%
D13*
%TO.C,H16*%
X239825000Y-138325000D03*
%TD*%
D128*
%TO.C,U6*%
X214025000Y-28400000D03*
X214025000Y-29050000D03*
X214025000Y-29700000D03*
X214025000Y-30350000D03*
X211775000Y-30350000D03*
X211775000Y-29700000D03*
X211775000Y-29050000D03*
X211775000Y-28400000D03*
%TD*%
D29*
%TO.C,D31*%
X32277654Y-80862989D03*
D30*
X36277654Y-80862989D03*
D31*
X36277654Y-84862989D03*
D32*
X32277654Y-84862989D03*
D18*
X34277654Y-82862989D03*
D19*
X34277654Y-82862989D03*
%TD*%
D86*
%TO.C,U20*%
X229062500Y-126550000D03*
X229062500Y-127200000D03*
X229062500Y-127850000D03*
X229062500Y-128500000D03*
X229062500Y-129150000D03*
X229062500Y-129800000D03*
X229062500Y-130450000D03*
X229062500Y-131100000D03*
X234787500Y-131100000D03*
X234787500Y-130450000D03*
X234787500Y-129800000D03*
X234787500Y-129150000D03*
X234787500Y-128500000D03*
X234787500Y-127850000D03*
X234787500Y-127200000D03*
X234787500Y-126550000D03*
%TD*%
D125*
%TO.C,D18*%
X102648520Y-125905226D03*
X105098788Y-124656752D03*
D18*
X103873654Y-125280989D03*
D126*
X103873654Y-125280989D03*
%TD*%
D20*
%TO.C,J7*%
X228075000Y-142975000D03*
D21*
X225535000Y-142975000D03*
X222995000Y-142975000D03*
X220455000Y-142975000D03*
X217915000Y-142975000D03*
X215375000Y-142975000D03*
X212835000Y-142975000D03*
X210295000Y-142975000D03*
X207755000Y-142975000D03*
X205215000Y-142975000D03*
%TD*%
D25*
%TO.C,D46*%
X114742463Y-41393604D03*
D26*
X117093604Y-38157537D03*
D28*
X111506396Y-39042463D03*
D27*
X113857537Y-35806396D03*
D19*
X114300000Y-38600000D03*
D18*
X114300000Y-38600000D03*
%TD*%
D129*
%TO.C,J12*%
X246082898Y-34242102D03*
D130*
X247878949Y-32446051D03*
X249675000Y-30650000D03*
%TD*%
D100*
%TO.C,D35*%
X39924237Y-60074866D03*
X38675763Y-62525134D03*
D101*
X39300000Y-61300000D03*
D18*
X39300000Y-61300000D03*
%TD*%
D38*
%TO.C,D39*%
X63189994Y-41174032D03*
D106*
X61374032Y-37610006D03*
D37*
X59625968Y-42989994D03*
D107*
X57810006Y-39425968D03*
D18*
X60500000Y-40300000D03*
D19*
X60500000Y-40300000D03*
%TD*%
D13*
%TO.C,H3*%
X59025000Y-138575000D03*
%TD*%
D48*
%TO.C,D47*%
X120700000Y-47028427D03*
D108*
X123528427Y-44200000D03*
D122*
X120700000Y-41371573D03*
D47*
X117871573Y-44200000D03*
D19*
X120700000Y-44200000D03*
D18*
X120700000Y-44200000D03*
%TD*%
D131*
%TO.C,Q8*%
X161265000Y-70685000D03*
X161265000Y-71345000D03*
X161265000Y-72005000D03*
X161265000Y-72665000D03*
D132*
X163257500Y-71675000D03*
%TD*%
D116*
%TO.C,D74*%
X30532624Y-64668521D03*
X29667376Y-67331479D03*
D117*
X30100000Y-66000000D03*
D18*
X30116051Y-66031502D03*
%TD*%
D58*
%TO.C,D26*%
X47529382Y-115672717D03*
X49473926Y-117617261D03*
D59*
X48501654Y-116644989D03*
D18*
X48501654Y-116644989D03*
%TD*%
D53*
%TO.C,D53*%
X133711754Y-92962508D03*
D82*
X137662508Y-93588246D03*
D83*
X138288246Y-89637492D03*
D54*
X134337492Y-89011754D03*
D19*
X136000000Y-91300000D03*
D18*
X136000000Y-91300000D03*
%TD*%
D84*
%TO.C,D51*%
X136115097Y-75658071D03*
X135684903Y-72941929D03*
D18*
X135900000Y-74300000D03*
D85*
X135900000Y-74300000D03*
%TD*%
D104*
%TO.C,D9*%
X127928278Y-69335468D03*
X127063030Y-66672510D03*
D105*
X127495654Y-68003989D03*
D18*
X127464152Y-67987938D03*
%TD*%
D48*
%TO.C,D57*%
X120800000Y-124228427D03*
D47*
X117971573Y-121400000D03*
D50*
X123628427Y-121400000D03*
D49*
X120800000Y-118571573D03*
D19*
X120800000Y-121400000D03*
D18*
X120800000Y-121400000D03*
%TD*%
D88*
%TO.C,F2*%
X191212500Y-42250000D03*
X194137500Y-42250000D03*
%TD*%
M02*
